<svg width="494px" height="155px"
 viewBox="0.00 0.00 370.27 116.00" xmlns="http://www.w3.org/2000/svg" xmlns:xlink="http://www.w3.org/1999/xlink">
<g id="graph0" class="graph" transform=" rotate(0) translate(4 112)">
<title>%0</title>
<polygon fill="#ffffff" stroke="transparent" points="-4,4 -4,-112 366.2734,-112 366.2734,4 -4,4"/>
<!-- customer -->
<g id="node1" class="node">
<title>customer</title>
<ellipse fill="none" stroke="#000000" cx="46.4331" cy="-90" rx="46.3662" ry="18"/>
<text text-anchor="middle" x="46.4331" y="-85.8" font-family="Times,serif" font-size="14.00" fill="#000000">customer</text>
</g>
<!-- consul -->
<g id="node2" class="node">
<title>consul</title>
<ellipse fill="none" stroke="#000000" cx="193.4331" cy="-18" rx="36.4975" ry="18"/>
<text text-anchor="middle" x="193.4331" y="-13.8" font-family="Times,serif" font-size="14.00" fill="#000000">consul</text>
</g>
<!-- customer&#45;&gt;consul -->
<g id="edge1" class="edge">
<title>customer&#45;&gt;consul</title>
<path fill="none" stroke="#0000ff" d="M75.4755,-75.7751C99.2176,-64.1464 132.8731,-47.662 158.1619,-35.2757"/>
<polygon fill="#0000ff" stroke="#0000ff" points="159.9653,-38.2897 167.4064,-30.7478 156.8862,-32.0033 159.9653,-38.2897"/>
</g>
<!-- catalog -->
<g id="node3" class="node">
<title>catalog</title>
<ellipse fill="none" stroke="#000000" cx="149.4331" cy="-90" rx="38.842" ry="18"/>
<text text-anchor="middle" x="149.4331" y="-85.8" font-family="Times,serif" font-size="14.00" fill="#000000">catalog</text>
</g>
<!-- catalog&#45;&gt;consul -->
<g id="edge2" class="edge">
<title>catalog&#45;&gt;consul</title>
<path fill="none" stroke="#0000ff" d="M160.0842,-72.5708C165.3267,-63.9922 171.7532,-53.4762 177.5606,-43.9732"/>
<polygon fill="#0000ff" stroke="#0000ff" points="180.6519,-45.6266 182.88,-35.2687 174.6789,-41.9764 180.6519,-45.6266"/>
</g>
<!-- order -->
<g id="node4" class="node">
<title>order</title>
<ellipse fill="none" stroke="#000000" cx="237.4331" cy="-90" rx="31.3198" ry="18"/>
<text text-anchor="middle" x="237.4331" y="-85.8" font-family="Times,serif" font-size="14.00" fill="#000000">order</text>
</g>
<!-- order&#45;&gt;consul -->
<g id="edge3" class="edge">
<title>order&#45;&gt;consul</title>
<path fill="none" stroke="#0000ff" d="M227.0057,-72.937C221.7675,-64.3654 215.3056,-53.7914 209.4543,-44.2165"/>
<polygon fill="#0000ff" stroke="#0000ff" points="212.2923,-42.1484 204.0913,-35.4407 206.3193,-45.7986 212.2923,-42.1484"/>
</g>
<!-- apache -->
<g id="node5" class="node">
<title>apache</title>
<ellipse fill="none" stroke="#000000" cx="324.4331" cy="-90" rx="37.6813" ry="18"/>
<text text-anchor="middle" x="324.4331" y="-85.8" font-family="Times,serif" font-size="14.00" fill="#000000">apache</text>
</g>
<!-- apache&#45;&gt;consul -->
<g id="edge4" class="edge">
<title>apache&#45;&gt;consul</title>
<path fill="none" stroke="#0000ff" d="M299.4846,-76.2879C278.8669,-64.956 249.4115,-48.7668 226.7732,-36.3243"/>
<polygon fill="#0000ff" stroke="#0000ff" points="228.2946,-33.1668 217.8452,-31.4173 224.9229,-39.3013 228.2946,-33.1668"/>
</g>
</g>
</svg>
