<svg width="451px" height="155px"
 viewBox="0.00 0.00 337.98 116.00" xmlns="http://www.w3.org/2000/svg" xmlns:xlink="http://www.w3.org/1999/xlink">
<g id="graph0" class="graph" transform=" rotate(0) translate(4 112)">
<title>%0</title>
<polygon fill="#ffffff" stroke="transparent" points="-4,4 -4,-112 333.9779,-112 333.9779,4 -4,4"/>
<!-- api_gateway -->
<g id="node1" class="node">
<title>api_gateway</title>
<ellipse fill="none" stroke="#000000" cx="225.7786" cy="-90" rx="59.6723" ry="18"/>
<text text-anchor="middle" x="225.7786" y="-85.8" font-family="Times,serif" font-size="14.00" fill="#000000">api_gateway</text>
</g>
<!-- orders -->
<g id="node2" class="node">
<title>orders</title>
<ellipse fill="none" stroke="#000000" cx="176.7786" cy="-18" rx="35.3315" ry="18"/>
<text text-anchor="middle" x="176.7786" y="-13.8" font-family="Times,serif" font-size="14.00" fill="#000000">orders</text>
</g>
<!-- api_gateway&#45;&gt;orders -->
<g id="edge1" class="edge">
<title>api_gateway&#45;&gt;orders</title>
<path fill="none" stroke="#0000ff" d="M213.6663,-72.2022C207.7644,-63.5301 200.561,-52.9455 194.0912,-43.4389"/>
<polygon fill="#0000ff" stroke="#0000ff" points="196.934,-41.3952 188.4143,-35.0972 191.147,-45.3336 196.934,-41.3952"/>
</g>
<!-- customers -->
<g id="node3" class="node">
<title>customers</title>
<ellipse fill="none" stroke="#000000" cx="73.7786" cy="-18" rx="50.378" ry="18"/>
<text text-anchor="middle" x="73.7786" y="-13.8" font-family="Times,serif" font-size="14.00" fill="#000000">customers</text>
</g>
<!-- api_gateway&#45;&gt;customers -->
<g id="edge2" class="edge">
<title>api_gateway&#45;&gt;customers</title>
<path fill="none" stroke="#0000ff" d="M193.5434,-74.7307C170.1296,-63.6399 138.3093,-48.5671 113.3527,-36.7456"/>
<polygon fill="#0000ff" stroke="#0000ff" points="114.6914,-33.507 104.1557,-32.3891 111.6948,-39.8331 114.6914,-33.507"/>
</g>
<!-- shipments -->
<g id="node4" class="node">
<title>shipments</title>
<ellipse fill="none" stroke="#000000" cx="279.7786" cy="-18" rx="50.3994" ry="18"/>
<text text-anchor="middle" x="279.7786" y="-13.8" font-family="Times,serif" font-size="14.00" fill="#000000">shipments</text>
</g>
<!-- api_gateway&#45;&gt;shipments -->
<g id="edge3" class="edge">
<title>api_gateway&#45;&gt;shipments</title>
<path fill="none" stroke="#0000ff" d="M239.127,-72.2022C245.5354,-63.6576 253.3363,-53.2564 260.3844,-43.859"/>
<polygon fill="#0000ff" stroke="#0000ff" points="263.3838,-45.6931 266.5839,-35.593 257.7838,-41.493 263.3838,-45.6931"/>
</g>
<!-- message_broker -->
<g id="node5" class="node">
<title>message_broker</title>
<ellipse fill="none" stroke="#000000" cx="73.7786" cy="-90" rx="73.5579" ry="18"/>
<text text-anchor="middle" x="73.7786" y="-85.8" font-family="Times,serif" font-size="14.00" fill="#000000">message_broker</text>
</g>
<!-- message_broker&#45;&gt;orders -->
<g id="edge4" class="edge">
<title>message_broker&#45;&gt;orders</title>
<path fill="none" stroke="#0000ff" d="M98.1882,-72.937C112.9453,-62.6214 131.8509,-49.4058 147.4212,-38.5217"/>
<polygon fill="#0000ff" stroke="#0000ff" points="149.4899,-41.346 155.6807,-32.7481 145.4793,-35.6088 149.4899,-41.346"/>
</g>
<!-- message_broker&#45;&gt;customers -->
<g id="edge5" class="edge">
<title>message_broker&#45;&gt;customers</title>
<path fill="none" stroke="#0000ff" d="M73.7786,-71.8314C73.7786,-64.131 73.7786,-54.9743 73.7786,-46.4166"/>
<polygon fill="#0000ff" stroke="#0000ff" points="77.2787,-46.4132 73.7786,-36.4133 70.2787,-46.4133 77.2787,-46.4132"/>
</g>
</g>
</svg>
