<svg width="2920px" height="443px"
 viewBox="0.00 0.00 2189.96 332.00" xmlns="http://www.w3.org/2000/svg" xmlns:xlink="http://www.w3.org/1999/xlink">
<g id="graph0" class="graph" transform=" rotate(0) translate(4 328)">
<title>%0</title>
<polygon fill="#ffffff" stroke="transparent" points="-4,4 -4,-328 2185.9642,-328 2185.9642,4 -4,4"/>
<!-- identity_api -->
<g id="node1" class="node">
<title>identity_api</title>
<ellipse fill="none" stroke="#000000" cx="577.4768" cy="-90" rx="57.3418" ry="18"/>
<text text-anchor="middle" x="577.4768" y="-85.8" font-family="Times,serif" font-size="14.00" fill="#000000">identity_api</text>
</g>
<!-- sql_data -->
<g id="node2" class="node">
<title>sql_data</title>
<ellipse fill="none" stroke="#000000" cx="867.4768" cy="-18" rx="43.4377" ry="18"/>
<text text-anchor="middle" x="867.4768" y="-13.8" font-family="Times,serif" font-size="14.00" fill="#000000">sql_data</text>
</g>
<!-- identity_api&#45;&gt;sql_data -->
<g id="edge1" class="edge">
<title>identity_api&#45;&gt;sql_data</title>
<path fill="none" stroke="#0000ff" d="M622.4711,-78.829C676.2389,-65.4797 765.7766,-43.2497 820.4342,-29.6795"/>
<polygon fill="#0000ff" stroke="#0000ff" points="821.3556,-33.0571 830.2176,-27.2506 819.6688,-26.2634 821.3556,-33.0571"/>
</g>
<!-- basket_api -->
<g id="node3" class="node">
<title>basket_api</title>
<ellipse fill="none" stroke="#000000" cx="424.4768" cy="-162" rx="52.1675" ry="18"/>
<text text-anchor="middle" x="424.4768" y="-157.8" font-family="Times,serif" font-size="14.00" fill="#000000">basket_api</text>
</g>
<!-- basket_api&#45;&gt;identity_api -->
<g id="edge2" class="edge">
<title>basket_api&#45;&gt;identity_api</title>
<path fill="none" stroke="#0000ff" d="M455.4386,-147.4297C478.769,-136.4507 510.9839,-121.2908 536.4569,-109.3035"/>
<polygon fill="#0000ff" stroke="#0000ff" points="537.9499,-112.4691 545.5078,-105.0442 534.9693,-106.1354 537.9499,-112.4691"/>
</g>
<!-- basket_data -->
<g id="node4" class="node">
<title>basket_data</title>
<ellipse fill="none" stroke="#000000" cx="424.4768" cy="-90" rx="56.7406" ry="18"/>
<text text-anchor="middle" x="424.4768" y="-85.8" font-family="Times,serif" font-size="14.00" fill="#000000">basket_data</text>
</g>
<!-- basket_api&#45;&gt;basket_data -->
<g id="edge3" class="edge">
<title>basket_api&#45;&gt;basket_data</title>
<path fill="none" stroke="#0000ff" d="M424.4768,-143.8314C424.4768,-136.131 424.4768,-126.9743 424.4768,-118.4166"/>
<polygon fill="#0000ff" stroke="#0000ff" points="427.9769,-118.4132 424.4768,-108.4133 420.9769,-118.4133 427.9769,-118.4132"/>
</g>
<!-- rabbitmq -->
<g id="node5" class="node">
<title>rabbitmq</title>
<ellipse fill="none" stroke="#000000" cx="970.4768" cy="-90" rx="45.806" ry="18"/>
<text text-anchor="middle" x="970.4768" y="-85.8" font-family="Times,serif" font-size="14.00" fill="#000000">rabbitmq</text>
</g>
<!-- basket_api&#45;&gt;rabbitmq -->
<g id="edge4" class="edge">
<title>basket_api&#45;&gt;rabbitmq</title>
<path fill="none" stroke="#0000ff" d="M462.6159,-149.628C470.1342,-147.5071 478.0082,-145.5055 485.4768,-144 639.2176,-113.0094 824.2154,-98.6021 914.877,-92.9996"/>
<polygon fill="#0000ff" stroke="#0000ff" points="915.1615,-96.4889 924.9316,-92.3906 914.7383,-89.5017 915.1615,-96.4889"/>
</g>
<!-- catalog_api -->
<g id="node6" class="node">
<title>catalog_api</title>
<ellipse fill="none" stroke="#000000" cx="550.4768" cy="-162" rx="55.5966" ry="18"/>
<text text-anchor="middle" x="550.4768" y="-157.8" font-family="Times,serif" font-size="14.00" fill="#000000">catalog_api</text>
</g>
<!-- catalog_api&#45;&gt;sql_data -->
<g id="edge5" class="edge">
<title>catalog_api&#45;&gt;sql_data</title>
<path fill="none" stroke="#0000ff" d="M582.9116,-147.2662C641.7481,-120.5392 765.8052,-64.1852 828.8872,-35.5297"/>
<polygon fill="#0000ff" stroke="#0000ff" points="830.4458,-38.6659 838.1029,-31.3433 827.5507,-32.2926 830.4458,-38.6659"/>
</g>
<!-- catalog_api&#45;&gt;rabbitmq -->
<g id="edge6" class="edge">
<title>catalog_api&#45;&gt;rabbitmq</title>
<path fill="none" stroke="#0000ff" d="M599.4568,-153.3963C616.547,-150.4059 635.8565,-147.0404 653.4768,-144 746.6294,-127.9264 855.2362,-109.4918 918.1016,-98.8513"/>
<polygon fill="#0000ff" stroke="#0000ff" points="918.8891,-102.2679 928.165,-97.1485 917.7211,-95.366 918.8891,-102.2679"/>
</g>
<!-- ordering_api -->
<g id="node7" class="node">
<title>ordering_api</title>
<ellipse fill="none" stroke="#000000" cx="722.4768" cy="-162" rx="60.2556" ry="18"/>
<text text-anchor="middle" x="722.4768" y="-157.8" font-family="Times,serif" font-size="14.00" fill="#000000">ordering_api</text>
</g>
<!-- ordering_api&#45;&gt;sql_data -->
<g id="edge7" class="edge">
<title>ordering_api&#45;&gt;sql_data</title>
<path fill="none" stroke="#0000ff" d="M739.9672,-144.6302C765.6889,-119.0859 813.821,-71.2858 843.0276,-42.2805"/>
<polygon fill="#0000ff" stroke="#0000ff" points="845.7454,-44.5142 850.3746,-34.9842 840.8128,-39.5474 845.7454,-44.5142"/>
</g>
<!-- ordering_api&#45;&gt;rabbitmq -->
<g id="edge8" class="edge">
<title>ordering_api&#45;&gt;rabbitmq</title>
<path fill="none" stroke="#0000ff" d="M765.9589,-149.3762C810.1279,-136.5529 878.3098,-116.7581 923.6471,-103.5957"/>
<polygon fill="#0000ff" stroke="#0000ff" points="924.8938,-106.8784 933.5214,-100.729 922.942,-100.156 924.8938,-106.8784"/>
</g>
<!-- ordering_backgroundtasks -->
<g id="node8" class="node">
<title>ordering_backgroundtasks</title>
<ellipse fill="none" stroke="#000000" cx="1433.4768" cy="-162" rx="113.4528" ry="18"/>
<text text-anchor="middle" x="1433.4768" y="-157.8" font-family="Times,serif" font-size="14.00" fill="#000000">ordering_backgroundtasks</text>
</g>
<!-- ordering_backgroundtasks&#45;&gt;sql_data -->
<g id="edge9" class="edge">
<title>ordering_backgroundtasks&#45;&gt;sql_data</title>
<path fill="none" stroke="#0000ff" d="M1373.173,-146.6577C1259.5993,-117.7626 1016.2335,-55.8462 914.106,-29.8633"/>
<polygon fill="#0000ff" stroke="#0000ff" points="914.9376,-26.4634 904.3834,-27.3897 913.2117,-33.2473 914.9376,-26.4634"/>
</g>
<!-- ordering_backgroundtasks&#45;&gt;rabbitmq -->
<g id="edge10" class="edge">
<title>ordering_backgroundtasks&#45;&gt;rabbitmq</title>
<path fill="none" stroke="#0000ff" d="M1352.2985,-149.3762C1257.5396,-134.6404 1103.5806,-110.6987 1023.1704,-98.1943"/>
<polygon fill="#0000ff" stroke="#0000ff" points="1023.6861,-94.7325 1013.267,-96.6542 1022.6104,-101.6493 1023.6861,-94.7325"/>
</g>
<!-- marketing_api -->
<g id="node9" class="node">
<title>marketing_api</title>
<ellipse fill="none" stroke="#000000" cx="867.4768" cy="-162" rx="66.6344" ry="18"/>
<text text-anchor="middle" x="867.4768" y="-157.8" font-family="Times,serif" font-size="14.00" fill="#000000">marketing_api</text>
</g>
<!-- marketing_api&#45;&gt;identity_api -->
<g id="edge12" class="edge">
<title>marketing_api&#45;&gt;identity_api</title>
<path fill="none" stroke="#0000ff" d="M818.2822,-149.7862C766.8173,-137.0087 686.2069,-116.9951 632.6215,-103.6911"/>
<polygon fill="#0000ff" stroke="#0000ff" points="633.1614,-100.219 622.6127,-101.2062 631.4747,-107.0127 633.1614,-100.219"/>
</g>
<!-- marketing_api&#45;&gt;sql_data -->
<g id="edge11" class="edge">
<title>marketing_api&#45;&gt;sql_data</title>
<path fill="none" stroke="#0000ff" d="M867.4768,-143.7623C867.4768,-119.201 867.4768,-75.2474 867.4768,-46.3541"/>
<polygon fill="#0000ff" stroke="#0000ff" points="870.9769,-46.0896 867.4768,-36.0896 863.9769,-46.0897 870.9769,-46.0896"/>
</g>
<!-- marketing_api&#45;&gt;rabbitmq -->
<g id="edge13" class="edge">
<title>marketing_api&#45;&gt;rabbitmq</title>
<path fill="none" stroke="#0000ff" d="M891.6257,-145.1192C905.9742,-135.0892 924.3132,-122.2697 939.6937,-111.5183"/>
<polygon fill="#0000ff" stroke="#0000ff" points="941.6991,-114.3868 947.8899,-105.7889 937.6886,-108.6496 941.6991,-114.3868"/>
</g>
<!-- nosql_data -->
<g id="node10" class="node">
<title>nosql_data</title>
<ellipse fill="none" stroke="#000000" cx="1718.4768" cy="-90" rx="52.7507" ry="18"/>
<text text-anchor="middle" x="1718.4768" y="-85.8" font-family="Times,serif" font-size="14.00" fill="#000000">nosql_data</text>
</g>
<!-- marketing_api&#45;&gt;nosql_data -->
<g id="edge14" class="edge">
<title>marketing_api&#45;&gt;nosql_data</title>
<path fill="none" stroke="#0000ff" d="M930.359,-155.8368C967.3584,-152.2619 1015.0645,-147.7413 1057.4768,-144 1277.6392,-124.5791 1539.277,-103.9217 1656.4058,-94.8014"/>
<polygon fill="#0000ff" stroke="#0000ff" points="1656.9126,-98.2727 1666.611,-94.0075 1656.3697,-91.2938 1656.9126,-98.2727"/>
</g>
<!-- payment_api -->
<g id="node11" class="node">
<title>payment_api</title>
<ellipse fill="none" stroke="#000000" cx="1127.4768" cy="-162" rx="60.8371" ry="18"/>
<text text-anchor="middle" x="1127.4768" y="-157.8" font-family="Times,serif" font-size="14.00" fill="#000000">payment_api</text>
</g>
<!-- payment_api&#45;&gt;rabbitmq -->
<g id="edge15" class="edge">
<title>payment_api&#45;&gt;rabbitmq</title>
<path fill="none" stroke="#0000ff" d="M1094.1811,-146.7307C1069.4898,-135.4073 1035.7473,-119.933 1009.7397,-108.0059"/>
<polygon fill="#0000ff" stroke="#0000ff" points="1011.0878,-104.7737 1000.539,-103.7865 1008.1697,-111.1365 1011.0878,-104.7737"/>
</g>
<!-- locations_api -->
<g id="node12" class="node">
<title>locations_api</title>
<ellipse fill="none" stroke="#000000" cx="1627.4768" cy="-162" rx="62.5585" ry="18"/>
<text text-anchor="middle" x="1627.4768" y="-157.8" font-family="Times,serif" font-size="14.00" fill="#000000">locations_api</text>
</g>
<!-- locations_api&#45;&gt;rabbitmq -->
<g id="edge16" class="edge">
<title>locations_api&#45;&gt;rabbitmq</title>
<path fill="none" stroke="#0000ff" d="M1581.993,-149.5128C1573.2432,-147.4283 1564.1143,-145.4695 1555.4768,-144 1362.8046,-111.2214 1130.8091,-97.2586 1026.3068,-92.3087"/>
<polygon fill="#0000ff" stroke="#0000ff" points="1026.4491,-88.8116 1016.2974,-91.8438 1026.1242,-95.8041 1026.4491,-88.8116"/>
</g>
<!-- locations_api&#45;&gt;nosql_data -->
<g id="edge17" class="edge">
<title>locations_api&#45;&gt;nosql_data</title>
<path fill="none" stroke="#0000ff" d="M1649.0425,-144.937C1661.1425,-135.3634 1676.3994,-123.292 1689.5278,-112.9047"/>
<polygon fill="#0000ff" stroke="#0000ff" points="1691.7093,-115.6418 1697.3798,-106.6921 1687.3659,-110.1522 1691.7093,-115.6418"/>
</g>
<!-- webhooks_api -->
<g id="node13" class="node">
<title>webhooks_api</title>
<ellipse fill="none" stroke="#000000" cx="2084.4768" cy="-90" rx="66.6402" ry="18"/>
<text text-anchor="middle" x="2084.4768" y="-85.8" font-family="Times,serif" font-size="14.00" fill="#000000">webhooks_api</text>
</g>
<!-- webhooks_api&#45;&gt;sql_data -->
<g id="edge18" class="edge">
<title>webhooks_api&#45;&gt;sql_data</title>
<path fill="none" stroke="#0000ff" d="M2034.2263,-78.088C2022.5504,-75.7092 2010.1278,-73.4879 1998.4768,-72 1786.0632,-44.8739 1116.0446,-24.808 921.1473,-19.4319"/>
<polygon fill="#0000ff" stroke="#0000ff" points="920.9702,-15.9259 910.878,-19.1502 920.7782,-22.9232 920.9702,-15.9259"/>
</g>
<!-- mobileshoppingapigw -->
<g id="node14" class="node">
<title>mobileshoppingapigw</title>
<ellipse fill="none" stroke="#000000" cx="869.4768" cy="-234" rx="96.737" ry="18"/>
<text text-anchor="middle" x="869.4768" y="-229.8" font-family="Times,serif" font-size="14.00" fill="#000000">mobileshoppingapigw</text>
</g>
<!-- mobileshoppingapigw&#45;&gt;identity_api -->
<g id="edge22" class="edge">
<title>mobileshoppingapigw&#45;&gt;identity_api</title>
<path fill="none" stroke="#0000ff" d="M799.8158,-221.4071C746.3847,-210.8652 677.7943,-195.1531 653.4768,-180 639.7962,-171.4751 614.1457,-139.3221 596.4547,-115.8732"/>
<polygon fill="#0000ff" stroke="#0000ff" points="599.1255,-113.6004 590.334,-107.6878 593.5195,-117.7924 599.1255,-113.6004"/>
</g>
<!-- mobileshoppingapigw&#45;&gt;sql_data -->
<g id="edge20" class="edge">
<title>mobileshoppingapigw&#45;&gt;sql_data</title>
<path fill="none" stroke="#0000ff" d="M937.4416,-221.1465C950.0477,-219.1362 963.1318,-217.298 975.4768,-216 1023.6415,-210.9358 1812.946,-214.9453 1846.4768,-180 1879.7097,-145.3651 1879.47,-106.8632 1846.4768,-72 1814.453,-38.1611 1121.0303,-22.7039 921.0269,-18.9392"/>
<polygon fill="#0000ff" stroke="#0000ff" points="920.8351,-15.4351 910.7716,-18.7483 920.7047,-22.4339 920.8351,-15.4351"/>
</g>
<!-- mobileshoppingapigw&#45;&gt;basket_api -->
<g id="edge25" class="edge">
<title>mobileshoppingapigw&#45;&gt;basket_api</title>
<path fill="none" stroke="#0000ff" d="M799.2238,-221.5424C787.6288,-219.6055 775.7252,-217.6891 764.4768,-216 640.835,-197.4334 607.8194,-205.7736 485.4768,-180 481.344,-179.1294 477.0845,-178.1171 472.8283,-177.0249"/>
<polygon fill="#0000ff" stroke="#0000ff" points="473.5311,-173.5893 462.9644,-174.3604 471.7057,-180.3471 473.5311,-173.5893"/>
</g>
<!-- mobileshoppingapigw&#45;&gt;rabbitmq -->
<g id="edge24" class="edge">
<title>mobileshoppingapigw&#45;&gt;rabbitmq</title>
<path fill="none" stroke="#0000ff" d="M941.0229,-221.7761C952.541,-219.8296 964.3362,-217.8492 975.4768,-216 1024.78,-207.8164 1165.0889,-218.0631 1197.4768,-180 1248.0478,-120.5677 1108.5333,-100.0722 1026.1433,-93.2468"/>
<polygon fill="#0000ff" stroke="#0000ff" points="1026.3934,-89.7558 1016.1501,-92.4623 1025.8455,-96.7343 1026.3934,-89.7558"/>
</g>
<!-- mobileshoppingapigw&#45;&gt;catalog_api -->
<g id="edge21" class="edge">
<title>mobileshoppingapigw&#45;&gt;catalog_api</title>
<path fill="none" stroke="#0000ff" d="M804.574,-220.6323C754.2358,-210.0935 682.7809,-194.7607 620.4768,-180 615.0585,-178.7163 609.4154,-177.3369 603.7882,-175.9333"/>
<polygon fill="#0000ff" stroke="#0000ff" points="604.2806,-172.448 593.7283,-173.3966 602.569,-179.2355 604.2806,-172.448"/>
</g>
<!-- mobileshoppingapigw&#45;&gt;ordering_api -->
<g id="edge23" class="edge">
<title>mobileshoppingapigw&#45;&gt;ordering_api</title>
<path fill="none" stroke="#0000ff" d="M835.0118,-217.1192C813.5314,-206.5982 785.7848,-193.008 763.2179,-181.9548"/>
<polygon fill="#0000ff" stroke="#0000ff" points="764.7354,-178.8009 754.2152,-177.5454 761.6563,-185.0873 764.7354,-178.8009"/>
</g>
<!-- mobileshoppingapigw&#45;&gt;marketing_api -->
<g id="edge19" class="edge">
<title>mobileshoppingapigw&#45;&gt;marketing_api</title>
<path fill="none" stroke="#0000ff" d="M868.9721,-215.8314C868.7582,-208.131 868.5039,-198.9743 868.2661,-190.4166"/>
<polygon fill="#0000ff" stroke="#0000ff" points="871.7647,-190.3122 867.9883,-180.4133 864.7674,-190.5066 871.7647,-190.3122"/>
</g>
<!-- mobileshoppingapigw&#45;&gt;nosql_data -->
<g id="edge26" class="edge">
<title>mobileshoppingapigw&#45;&gt;nosql_data</title>
<path fill="none" stroke="#0000ff" d="M937.7302,-221.1411C950.2483,-219.1445 963.2272,-217.3124 975.4768,-216 1019.4371,-211.2902 1739.9295,-211.9618 1770.4768,-180 1789.1323,-160.4806 1768.2169,-133.0336 1747.614,-113.5939"/>
<polygon fill="#0000ff" stroke="#0000ff" points="1749.8804,-110.9247 1740.1114,-106.8237 1745.1907,-116.1216 1749.8804,-110.9247"/>
</g>
<!-- mobilemarketingapigw -->
<g id="node15" class="node">
<title>mobilemarketingapigw</title>
<ellipse fill="none" stroke="#000000" cx="654.4768" cy="-234" rx="100.723" ry="18"/>
<text text-anchor="middle" x="654.4768" y="-229.8" font-family="Times,serif" font-size="14.00" fill="#000000">mobilemarketingapigw</text>
</g>
<!-- mobilemarketingapigw&#45;&gt;identity_api -->
<g id="edge30" class="edge">
<title>mobilemarketingapigw&#45;&gt;identity_api</title>
<path fill="none" stroke="#0000ff" d="M581.4432,-221.618C496.4009,-207.0306 366.9981,-184.2349 363.4768,-180 353.2471,-167.6974 353.6441,-156.6221 363.4768,-144 368.412,-137.6648 458.6787,-116.4645 520.3849,-102.5883"/>
<polygon fill="#0000ff" stroke="#0000ff" points="521.4127,-105.9449 530.4053,-100.3428 519.8819,-99.1143 521.4127,-105.9449"/>
</g>
<!-- mobilemarketingapigw&#45;&gt;sql_data -->
<g id="edge28" class="edge">
<title>mobilemarketingapigw&#45;&gt;sql_data</title>
<path fill="none" stroke="#0000ff" d="M724.6634,-221.062C737.5355,-219.0734 750.8814,-217.2645 763.4768,-216 818.0721,-210.5189 1705.3847,-211.2634 1750.4768,-180 1778.9659,-160.2478 1773.6781,-141.9935 1780.4768,-108 1783.6147,-92.3107 1791.4514,-83.6429 1780.4768,-72 1750.8498,-40.5689 1111.8235,-23.5533 920.8865,-19.1578"/>
<polygon fill="#0000ff" stroke="#0000ff" points="920.8864,-15.657 910.8091,-18.928 920.7267,-22.6552 920.8864,-15.657"/>
</g>
<!-- mobilemarketingapigw&#45;&gt;basket_api -->
<g id="edge33" class="edge">
<title>mobilemarketingapigw&#45;&gt;basket_api</title>
<path fill="none" stroke="#0000ff" d="M604.2865,-218.2883C565.4593,-206.1337 511.9974,-189.3978 473.4742,-177.3383"/>
<polygon fill="#0000ff" stroke="#0000ff" points="474.1147,-173.8714 463.5257,-174.224 472.0234,-180.5517 474.1147,-173.8714"/>
</g>
<!-- mobilemarketingapigw&#45;&gt;rabbitmq -->
<g id="edge32" class="edge">
<title>mobilemarketingapigw&#45;&gt;rabbitmq</title>
<path fill="none" stroke="#0000ff" d="M726.8213,-221.429C811.0885,-206.649 939.4073,-183.6568 943.4768,-180 960.7562,-164.473 967.1664,-138.3709 969.4529,-118.2636"/>
<polygon fill="#0000ff" stroke="#0000ff" points="972.9572,-118.3622 970.3252,-108.0995 965.9828,-117.7635 972.9572,-118.3622"/>
</g>
<!-- mobilemarketingapigw&#45;&gt;catalog_api -->
<g id="edge29" class="edge">
<title>mobilemarketingapigw&#45;&gt;catalog_api</title>
<path fill="none" stroke="#0000ff" d="M629.3013,-216.5708C615.331,-206.8991 597.8037,-194.7648 582.8263,-184.3958"/>
<polygon fill="#0000ff" stroke="#0000ff" points="584.5629,-181.3412 574.3487,-178.5267 580.5784,-187.0965 584.5629,-181.3412"/>
</g>
<!-- mobilemarketingapigw&#45;&gt;ordering_api -->
<g id="edge31" class="edge">
<title>mobilemarketingapigw&#45;&gt;ordering_api</title>
<path fill="none" stroke="#0000ff" d="M671.2858,-216.2022C679.6648,-207.3303 689.9342,-196.4569 699.0699,-186.7837"/>
<polygon fill="#0000ff" stroke="#0000ff" points="701.7741,-189.0179 706.0958,-179.3446 696.685,-184.2115 701.7741,-189.0179"/>
</g>
<!-- mobilemarketingapigw&#45;&gt;marketing_api -->
<g id="edge27" class="edge">
<title>mobilemarketingapigw&#45;&gt;marketing_api</title>
<path fill="none" stroke="#0000ff" d="M701.7484,-218.0209C735.6932,-206.5466 781.4085,-191.0935 816.2273,-179.3238"/>
<polygon fill="#0000ff" stroke="#0000ff" points="817.3876,-182.6262 825.7402,-176.1081 815.146,-175.9948 817.3876,-182.6262"/>
</g>
<!-- mobilemarketingapigw&#45;&gt;nosql_data -->
<g id="edge34" class="edge">
<title>mobilemarketingapigw&#45;&gt;nosql_data</title>
<path fill="none" stroke="#0000ff" d="M724.6641,-221.069C737.5362,-219.0797 750.8818,-217.2688 763.4768,-216 817.076,-210.6006 1695.0984,-218.7928 1732.4768,-180 1748.3175,-163.5599 1741.8382,-137.038 1733.1761,-117.0347"/>
<polygon fill="#0000ff" stroke="#0000ff" points="1736.2609,-115.3699 1728.8366,-107.8114 1729.9269,-118.35 1736.2609,-115.3699"/>
</g>
<!-- webshoppingapigw -->
<g id="node16" class="node">
<title>webshoppingapigw</title>
<ellipse fill="none" stroke="#000000" cx="257.4768" cy="-234" rx="86.2638" ry="18"/>
<text text-anchor="middle" x="257.4768" y="-229.8" font-family="Times,serif" font-size="14.00" fill="#000000">webshoppingapigw</text>
</g>
<!-- webshoppingapigw&#45;&gt;identity_api -->
<g id="edge38" class="edge">
<title>webshoppingapigw&#45;&gt;identity_api</title>
<path fill="none" stroke="#0000ff" d="M247.1358,-215.8122C237.2903,-195.8027 226.3062,-163.8546 243.4768,-144 279.7607,-102.0444 435.8491,-117.6234 490.4768,-108 500.1605,-106.2941 510.4164,-104.3216 520.359,-102.321"/>
<polygon fill="#0000ff" stroke="#0000ff" points="521.0661,-105.7489 530.1643,-100.32 519.6664,-98.8903 521.0661,-105.7489"/>
</g>
<!-- webshoppingapigw&#45;&gt;sql_data -->
<g id="edge36" class="edge">
<title>webshoppingapigw&#45;&gt;sql_data</title>
<path fill="none" stroke="#0000ff" d="M246.1572,-215.7678C240.5372,-205.6415 234.3474,-192.5789 231.4768,-180 220.1882,-130.533 226.4009,-100.3556 268.4768,-72 313.1503,-41.8939 675.0706,-25.2346 813.7107,-19.907"/>
<polygon fill="#0000ff" stroke="#0000ff" points="814.222,-23.3902 824.0821,-19.5136 813.9566,-16.3952 814.222,-23.3902"/>
</g>
<!-- webshoppingapigw&#45;&gt;basket_api -->
<g id="edge41" class="edge">
<title>webshoppingapigw&#45;&gt;basket_api</title>
<path fill="none" stroke="#0000ff" d="M295.3717,-217.6621C321.2557,-206.5025 355.5737,-191.7067 382.3213,-180.1748"/>
<polygon fill="#0000ff" stroke="#0000ff" points="384.0062,-183.2599 391.8034,-176.0867 381.2348,-176.8318 384.0062,-183.2599"/>
</g>
<!-- webshoppingapigw&#45;&gt;rabbitmq -->
<g id="edge40" class="edge">
<title>webshoppingapigw&#45;&gt;rabbitmq</title>
<path fill="none" stroke="#0000ff" d="M270.4029,-216.0938C286.9582,-194.7399 317.8098,-159.9375 353.4768,-144 403.9984,-121.4248 772.2057,-100.2401 914.5331,-92.8061"/>
<polygon fill="#0000ff" stroke="#0000ff" points="914.9804,-96.2877 924.7855,-92.274 914.6175,-89.2971 914.9804,-96.2877"/>
</g>
<!-- webshoppingapigw&#45;&gt;catalog_api -->
<g id="edge37" class="edge">
<title>webshoppingapigw&#45;&gt;catalog_api</title>
<path fill="none" stroke="#0000ff" d="M316.2011,-220.7307C362.3359,-210.1519 428.1496,-194.7208 485.4768,-180 489.8043,-178.8888 494.2857,-177.7089 498.7792,-176.5056"/>
<polygon fill="#0000ff" stroke="#0000ff" points="499.8427,-179.8437 508.58,-173.8513 498.0128,-173.0871 499.8427,-179.8437"/>
</g>
<!-- webshoppingapigw&#45;&gt;ordering_api -->
<g id="edge39" class="edge">
<title>webshoppingapigw&#45;&gt;ordering_api</title>
<path fill="none" stroke="#0000ff" d="M320.2509,-221.636C330.9854,-219.6565 342.0392,-217.702 352.4768,-216 468.9177,-197.0122 498.8466,-197.788 615.4768,-180 630.002,-177.7847 645.6092,-175.2483 660.2906,-172.7921"/>
<polygon fill="#0000ff" stroke="#0000ff" points="661.0022,-176.2217 670.2821,-171.1095 659.8397,-169.3189 661.0022,-176.2217"/>
</g>
<!-- webshoppingapigw&#45;&gt;marketing_api -->
<g id="edge35" class="edge">
<title>webshoppingapigw&#45;&gt;marketing_api</title>
<path fill="none" stroke="#0000ff" d="M319.1567,-221.3361C330.2178,-219.3443 341.6642,-217.4635 352.4768,-216 546.4738,-189.7415 598.1243,-210.6457 791.4768,-180 797.3108,-179.0753 803.36,-177.9441 809.3822,-176.7035"/>
<polygon fill="#0000ff" stroke="#0000ff" points="810.4132,-180.0616 819.449,-174.5293 808.9355,-173.2193 810.4132,-180.0616"/>
</g>
<!-- webshoppingapigw&#45;&gt;nosql_data -->
<g id="edge42" class="edge">
<title>webshoppingapigw&#45;&gt;nosql_data</title>
<path fill="none" stroke="#0000ff" d="M271.73,-216.1627C290.2399,-194.5292 324.7921,-159.0885 363.4768,-144 424.2542,-120.2945 1395.7925,-97.1527 1655.2146,-91.3734"/>
<polygon fill="#0000ff" stroke="#0000ff" points="1655.6678,-94.8643 1665.5877,-91.1431 1655.5124,-87.866 1655.6678,-94.8643"/>
</g>
<!-- webmarketingapigw -->
<g id="node17" class="node">
<title>webmarketingapigw</title>
<ellipse fill="none" stroke="#000000" cx="1270.4768" cy="-234" rx="89.7499" ry="18"/>
<text text-anchor="middle" x="1270.4768" y="-229.8" font-family="Times,serif" font-size="14.00" fill="#000000">webmarketingapigw</text>
</g>
<!-- webmarketingapigw&#45;&gt;identity_api -->
<g id="edge46" class="edge">
<title>webmarketingapigw&#45;&gt;identity_api</title>
<path fill="none" stroke="#0000ff" d="M1204.9152,-221.617C1162.1426,-212.5129 1105.5374,-198.5081 1057.4768,-180 1025.5651,-167.7108 1022.0575,-154.3867 989.4768,-144 926.4967,-123.9221 742.5471,-104.9169 643.1024,-95.7381"/>
<polygon fill="#0000ff" stroke="#0000ff" points="643.1488,-92.2278 632.8712,-94.8009 642.5102,-99.1986 643.1488,-92.2278"/>
</g>
<!-- webmarketingapigw&#45;&gt;sql_data -->
<g id="edge44" class="edge">
<title>webmarketingapigw&#45;&gt;sql_data</title>
<path fill="none" stroke="#0000ff" d="M1360.0194,-231.9226C1582.7467,-226.3201 2145.8654,-209.3119 2173.4768,-180 2191.1605,-161.2272 2176.2399,-85.7405 2160.4768,-72 2113.072,-30.6777 1159.3401,-20.3293 921.064,-18.3847"/>
<polygon fill="#0000ff" stroke="#0000ff" points="920.9446,-14.8837 910.9169,-18.3035 920.8885,-21.8835 920.9446,-14.8837"/>
</g>
<!-- webmarketingapigw&#45;&gt;basket_api -->
<g id="edge49" class="edge">
<title>webmarketingapigw&#45;&gt;basket_api</title>
<path fill="none" stroke="#0000ff" d="M1207.0151,-221.2257C1195.24,-219.2076 1183.0156,-217.3462 1171.4768,-216 868.2252,-180.6206 786.4004,-231.5578 485.4768,-180 481.0725,-179.2454 476.5363,-178.2796 472.02,-177.1881"/>
<polygon fill="#0000ff" stroke="#0000ff" points="472.7834,-173.7702 462.2237,-174.6314 471.0157,-180.5433 472.7834,-173.7702"/>
</g>
<!-- webmarketingapigw&#45;&gt;rabbitmq -->
<g id="edge48" class="edge">
<title>webmarketingapigw&#45;&gt;rabbitmq</title>
<path fill="none" stroke="#0000ff" d="M1268.1155,-215.824C1264.44,-195.2046 1255.3366,-162.1016 1233.4768,-144 1202.3593,-118.2323 1092.7895,-102.601 1025.2843,-95.1937"/>
<polygon fill="#0000ff" stroke="#0000ff" points="1025.5529,-91.7026 1015.237,-94.1177 1024.8074,-98.6628 1025.5529,-91.7026"/>
</g>
<!-- webmarketingapigw&#45;&gt;catalog_api -->
<g id="edge45" class="edge">
<title>webmarketingapigw&#45;&gt;catalog_api</title>
<path fill="none" stroke="#0000ff" d="M1206.4643,-221.2948C1194.8551,-219.2951 1182.8304,-217.4223 1171.4768,-216 942.4889,-187.3149 882.5615,-207.9014 653.4768,-180 638.6893,-178.199 622.7983,-175.703 608.0309,-173.1426"/>
<polygon fill="#0000ff" stroke="#0000ff" points="608.4714,-169.6663 598.0141,-171.3676 607.25,-176.5589 608.4714,-169.6663"/>
</g>
<!-- webmarketingapigw&#45;&gt;ordering_api -->
<g id="edge47" class="edge">
<title>webmarketingapigw&#45;&gt;ordering_api</title>
<path fill="none" stroke="#0000ff" d="M1205.9013,-221.4383C1194.4606,-219.4475 1182.6387,-217.5406 1171.4768,-216 1003.4248,-192.8053 958.5362,-209.5063 791.4768,-180 786.425,-179.1077 781.2008,-178.0327 775.9924,-176.8575"/>
<polygon fill="#0000ff" stroke="#0000ff" points="776.5832,-173.4006 766.0451,-174.4957 774.9661,-180.2112 776.5832,-173.4006"/>
</g>
<!-- webmarketingapigw&#45;&gt;marketing_api -->
<g id="edge43" class="edge">
<title>webmarketingapigw&#45;&gt;marketing_api</title>
<path fill="none" stroke="#0000ff" d="M1203.9174,-221.8601C1193.076,-219.8937 1181.965,-217.885 1171.4768,-216 1089.5154,-201.2696 995.079,-184.5313 933.4913,-173.6467"/>
<polygon fill="#0000ff" stroke="#0000ff" points="933.9752,-170.1781 923.5187,-171.8847 932.7571,-177.0713 933.9752,-170.1781"/>
</g>
<!-- webmarketingapigw&#45;&gt;nosql_data -->
<g id="edge50" class="edge">
<title>webmarketingapigw&#45;&gt;nosql_data</title>
<path fill="none" stroke="#0000ff" d="M1360.2258,-232.658C1522.1825,-229.2989 1849.8069,-217.8529 1884.4768,-180 1921.8638,-139.1806 1837.7165,-113.0547 1776.0912,-99.9974"/>
<polygon fill="#0000ff" stroke="#0000ff" points="1776.5323,-96.5151 1766.0334,-97.9379 1775.128,-103.3728 1776.5323,-96.5151"/>
</g>
<!-- mobileshoppingagg -->
<g id="node18" class="node">
<title>mobileshoppingagg</title>
<ellipse fill="none" stroke="#000000" cx="448.4768" cy="-234" rx="87.4273" ry="18"/>
<text text-anchor="middle" x="448.4768" y="-229.8" font-family="Times,serif" font-size="14.00" fill="#000000">mobileshoppingagg</text>
</g>
<!-- mobileshoppingagg&#45;&gt;identity_api -->
<g id="edge54" class="edge">
<title>mobileshoppingagg&#45;&gt;identity_api</title>
<path fill="none" stroke="#0000ff" d="M387.8584,-220.9792C334.0895,-208.8182 262.7908,-190.9442 254.4768,-180 244.7982,-167.2594 244.051,-156.1368 254.4768,-144 289.0456,-103.7581 438.2611,-117.3775 490.4768,-108 500.1548,-106.2619 510.4078,-104.2733 520.3493,-102.2666"/>
<polygon fill="#0000ff" stroke="#0000ff" points="521.0575,-105.6943 530.1541,-100.2625 519.6557,-98.8361 521.0575,-105.6943"/>
</g>
<!-- mobileshoppingagg&#45;&gt;sql_data -->
<g id="edge52" class="edge">
<title>mobileshoppingagg&#45;&gt;sql_data</title>
<path fill="none" stroke="#0000ff" d="M385.5236,-221.4376C328.6006,-209.4423 252.3652,-191.533 243.4768,-180 233.7097,-167.327 235.726,-157.9973 243.4768,-144 272.6888,-91.2458 301.4782,-91.6852 358.4768,-72 441.7624,-43.2363 701.4525,-26.6319 814.2678,-20.6088"/>
<polygon fill="#0000ff" stroke="#0000ff" points="814.5922,-24.0967 824.3943,-20.0756 814.2241,-17.1064 814.5922,-24.0967"/>
</g>
<!-- mobileshoppingagg&#45;&gt;basket_api -->
<g id="edge57" class="edge">
<title>mobileshoppingagg&#45;&gt;basket_api</title>
<path fill="none" stroke="#0000ff" d="M442.4206,-215.8314C439.757,-207.8406 436.5707,-198.2819 433.6273,-189.4514"/>
<polygon fill="#0000ff" stroke="#0000ff" points="436.9307,-188.2934 430.4479,-179.9134 430.2899,-190.5071 436.9307,-188.2934"/>
</g>
<!-- mobileshoppingagg&#45;&gt;rabbitmq -->
<g id="edge56" class="edge">
<title>mobileshoppingagg&#45;&gt;rabbitmq</title>
<path fill="none" stroke="#0000ff" d="M406.5538,-218.0221C390.0431,-209.4191 372.8217,-197.008 363.4768,-180 355.7721,-165.9772 352.676,-155.8043 363.4768,-144 381.9593,-123.8003 767.5385,-100.9551 914.3727,-92.9543"/>
<polygon fill="#0000ff" stroke="#0000ff" points="914.7279,-96.4403 924.5238,-92.4042 914.349,-89.4506 914.7279,-96.4403"/>
</g>
<!-- mobileshoppingagg&#45;&gt;catalog_api -->
<g id="edge53" class="edge">
<title>mobileshoppingagg&#45;&gt;catalog_api</title>
<path fill="none" stroke="#0000ff" d="M473.1681,-216.5708C486.8697,-206.8991 504.06,-194.7648 518.7494,-184.3958"/>
<polygon fill="#0000ff" stroke="#0000ff" points="520.9126,-187.153 527.0639,-178.5267 516.8758,-181.4342 520.9126,-187.153"/>
</g>
<!-- mobileshoppingagg&#45;&gt;ordering_api -->
<g id="edge55" class="edge">
<title>mobileshoppingagg&#45;&gt;ordering_api</title>
<path fill="none" stroke="#0000ff" d="M502.6104,-219.7751C550.2229,-207.2638 619.2248,-189.1319 667.1813,-176.5302"/>
<polygon fill="#0000ff" stroke="#0000ff" points="668.2978,-179.8557 677.08,-173.9291 666.5188,-173.0855 668.2978,-179.8557"/>
</g>
<!-- mobileshoppingagg&#45;&gt;marketing_api -->
<g id="edge51" class="edge">
<title>mobileshoppingagg&#45;&gt;marketing_api</title>
<path fill="none" stroke="#0000ff" d="M512.1865,-221.6791C522.951,-219.7051 534.0226,-217.7412 544.4768,-216 653.907,-197.774 682.5072,-200.8038 791.4768,-180 796.8876,-178.967 802.495,-177.8086 808.1004,-176.5905"/>
<polygon fill="#0000ff" stroke="#0000ff" points="809.1479,-179.9429 818.1449,-174.3479 807.6225,-173.1111 809.1479,-179.9429"/>
</g>
<!-- mobileshoppingagg&#45;&gt;nosql_data -->
<g id="edge58" class="edge">
<title>mobileshoppingagg&#45;&gt;nosql_data</title>
<path fill="none" stroke="#0000ff" d="M509.4654,-221.1058C521.0452,-219.0726 533.0977,-217.2367 544.4768,-216 608.2988,-209.0639 1650.2497,-221.2074 1699.4768,-180 1717.0996,-165.2482 1720.9132,-138.6396 1720.8742,-118.1673"/>
<polygon fill="#0000ff" stroke="#0000ff" points="1724.3708,-118.0002 1720.5555,-108.1162 1717.3743,-118.2221 1724.3708,-118.0002"/>
</g>
<!-- webshoppingagg -->
<g id="node19" class="node">
<title>webshoppingagg</title>
<ellipse fill="none" stroke="#000000" cx="76.4768" cy="-234" rx="76.4536" ry="18"/>
<text text-anchor="middle" x="76.4768" y="-229.8" font-family="Times,serif" font-size="14.00" fill="#000000">webshoppingagg</text>
</g>
<!-- webshoppingagg&#45;&gt;identity_api -->
<g id="edge62" class="edge">
<title>webshoppingagg&#45;&gt;identity_api</title>
<path fill="none" stroke="#0000ff" d="M54.81,-216.5251C33.3302,-197.1545 6.3237,-165.7772 26.4768,-144 61.599,-106.0473 439.2775,-115.2529 490.4768,-108 500.4415,-106.5884 510.9785,-104.727 521.1487,-102.7368"/>
<polygon fill="#0000ff" stroke="#0000ff" points="522.0522,-106.1251 531.1619,-100.7156 520.6671,-99.2635 522.0522,-106.1251"/>
</g>
<!-- webshoppingagg&#45;&gt;sql_data -->
<g id="edge60" class="edge">
<title>webshoppingagg&#45;&gt;sql_data</title>
<path fill="none" stroke="#0000ff" d="M48.3836,-217.1088C35.8249,-207.8798 22.3293,-195.2179 15.4768,-180 8.9074,-165.4108 6.1214,-156.9799 15.4768,-144 74.6453,-61.9081 132.3664,-92.4238 231.4768,-72 342.4321,-49.1353 681.8522,-28.3476 814.0174,-20.9044"/>
<polygon fill="#0000ff" stroke="#0000ff" points="814.5016,-24.3829 824.2903,-20.3293 814.1102,-17.3938 814.5016,-24.3829"/>
</g>
<!-- webshoppingagg&#45;&gt;basket_api -->
<g id="edge65" class="edge">
<title>webshoppingagg&#45;&gt;basket_api</title>
<path fill="none" stroke="#0000ff" d="M133.8339,-221.9695C143.3979,-219.9708 153.2169,-217.9233 162.4768,-216 234.0303,-201.138 316.6109,-184.1438 369.627,-173.254"/>
<polygon fill="#0000ff" stroke="#0000ff" points="370.4068,-176.667 379.4982,-171.2268 368.9985,-169.8101 370.4068,-176.667"/>
</g>
<!-- webshoppingagg&#45;&gt;rabbitmq -->
<g id="edge64" class="edge">
<title>webshoppingagg&#45;&gt;rabbitmq</title>
<path fill="none" stroke="#0000ff" d="M66.5885,-215.8773C57.0316,-195.622 46.4247,-163.1601 64.4768,-144 68.1445,-140.1072 717.9966,-103.9358 914.7058,-93.0714"/>
<polygon fill="#0000ff" stroke="#0000ff" points="915.0314,-96.5588 924.8232,-92.5128 914.6455,-89.5695 915.0314,-96.5588"/>
</g>
<!-- webshoppingagg&#45;&gt;catalog_api -->
<g id="edge61" class="edge">
<title>webshoppingagg&#45;&gt;catalog_api</title>
<path fill="none" stroke="#0000ff" d="M132.3094,-221.5081C142.3231,-219.498 152.6862,-217.5666 162.4768,-216 305.107,-193.1784 343.6474,-207.3612 485.4768,-180 490.1871,-179.0913 495.0546,-178.0124 499.9082,-176.8412"/>
<polygon fill="#0000ff" stroke="#0000ff" points="500.9646,-180.1841 509.7966,-174.3321 499.243,-173.3991 500.9646,-180.1841"/>
</g>
<!-- webshoppingagg&#45;&gt;ordering_api -->
<g id="edge63" class="edge">
<title>webshoppingagg&#45;&gt;ordering_api</title>
<path fill="none" stroke="#0000ff" d="M131.3463,-221.432C141.6489,-219.3808 152.3606,-217.4546 162.4768,-216 362.3887,-187.2541 415.0342,-204.7762 615.4768,-180 630.2868,-178.1694 646.1771,-175.7481 661.0609,-173.2769"/>
<polygon fill="#0000ff" stroke="#0000ff" points="661.9028,-176.6843 671.1786,-171.5649 660.7348,-169.7824 661.9028,-176.6843"/>
</g>
<!-- webshoppingagg&#45;&gt;marketing_api -->
<g id="edge59" class="edge">
<title>webshoppingagg&#45;&gt;marketing_api</title>
<path fill="none" stroke="#0000ff" d="M130.8599,-221.34C141.3059,-219.2714 152.1939,-217.3626 162.4768,-216 440.0632,-179.2156 514.3967,-220.4221 791.4768,-180 797.3218,-179.1473 803.3782,-178.0636 809.4049,-176.8522"/>
<polygon fill="#0000ff" stroke="#0000ff" points="810.423,-180.214 819.4766,-174.7111 808.9674,-173.367 810.423,-180.214"/>
</g>
<!-- webshoppingagg&#45;&gt;nosql_data -->
<g id="edge66" class="edge">
<title>webshoppingagg&#45;&gt;nosql_data</title>
<path fill="none" stroke="#0000ff" d="M108.4,-217.4551C151.7045,-195.9571 232.0984,-159.359 305.4768,-144 372.277,-130.0179 1389.4745,-99.5735 1655.3085,-91.8235"/>
<polygon fill="#0000ff" stroke="#0000ff" points="1655.6627,-95.3148 1665.5566,-91.5252 1655.4589,-88.3178 1655.6627,-95.3148"/>
</g>
<!-- ordering_signalrhub -->
<g id="node20" class="node">
<title>ordering_signalrhub</title>
<ellipse fill="none" stroke="#000000" cx="1073.4768" cy="-234" rx="89.1915" ry="18"/>
<text text-anchor="middle" x="1073.4768" y="-229.8" font-family="Times,serif" font-size="14.00" fill="#000000">ordering_signalrhub</text>
</g>
<!-- ordering_signalrhub&#45;&gt;identity_api -->
<g id="edge70" class="edge">
<title>ordering_signalrhub&#45;&gt;identity_api</title>
<path fill="none" stroke="#0000ff" d="M1054.0162,-216.1553C1029.967,-195.2016 986.8821,-161.1364 943.4768,-144 890.0503,-122.9073 732.6237,-104.9291 642.5973,-96.0093"/>
<polygon fill="#0000ff" stroke="#0000ff" points="642.7926,-92.5117 632.4987,-95.0187 642.1092,-99.4783 642.7926,-92.5117"/>
</g>
<!-- ordering_signalrhub&#45;&gt;sql_data -->
<g id="edge68" class="edge">
<title>ordering_signalrhub&#45;&gt;sql_data</title>
<path fill="none" stroke="#0000ff" d="M1136.5552,-221.1663C1148.1309,-219.1672 1160.1372,-217.3277 1171.4768,-216 1248.7188,-206.9562 1816.9183,-236.3879 1870.4768,-180 1903.5335,-145.197 1903.493,-106.8415 1870.4768,-72 1837.5759,-37.2801 1124.139,-22.406 921.0053,-18.8653"/>
<polygon fill="#0000ff" stroke="#0000ff" points="920.9375,-15.3637 910.8787,-18.6909 920.8169,-22.3627 920.9375,-15.3637"/>
</g>
<!-- ordering_signalrhub&#45;&gt;basket_api -->
<g id="edge73" class="edge">
<title>ordering_signalrhub&#45;&gt;basket_api</title>
<path fill="none" stroke="#0000ff" d="M1009.8469,-221.2795C998.4367,-219.2937 986.6296,-217.4297 975.4768,-216 758.8844,-188.2353 700.3082,-219.1234 485.4768,-180 481.0807,-179.1994 476.55,-178.2021 472.0373,-177.0903"/>
<polygon fill="#0000ff" stroke="#0000ff" points="472.8081,-173.674 462.2459,-174.5054 471.0213,-180.4421 472.8081,-173.674"/>
</g>
<!-- ordering_signalrhub&#45;&gt;rabbitmq -->
<g id="edge72" class="edge">
<title>ordering_signalrhub&#45;&gt;rabbitmq</title>
<path fill="none" stroke="#0000ff" d="M1133.0708,-220.4084C1184.2449,-205.934 1245.5246,-180.1158 1216.4768,-144 1193.033,-114.8519 1091.0414,-100.5448 1025.9683,-94.2608"/>
<polygon fill="#0000ff" stroke="#0000ff" points="1026.1404,-90.7618 1015.8591,-93.3202 1025.4918,-97.7317 1026.1404,-90.7618"/>
</g>
<!-- ordering_signalrhub&#45;&gt;catalog_api -->
<g id="edge69" class="edge">
<title>ordering_signalrhub&#45;&gt;catalog_api</title>
<path fill="none" stroke="#0000ff" d="M1009.008,-221.4929C997.8492,-219.5189 986.3437,-217.6034 975.4768,-216 833.0165,-194.9799 796.0266,-200.4046 653.4768,-180 638.8763,-177.9101 623.1684,-175.3336 608.5266,-172.7899"/>
<polygon fill="#0000ff" stroke="#0000ff" points="609.0424,-169.327 598.5871,-171.0406 607.829,-176.221 609.0424,-169.327"/>
</g>
<!-- ordering_signalrhub&#45;&gt;ordering_api -->
<g id="edge71" class="edge">
<title>ordering_signalrhub&#45;&gt;ordering_api</title>
<path fill="none" stroke="#0000ff" d="M1007.4345,-221.8751C937.4636,-208.9356 831.6511,-189.0762 791.4768,-180 786.8163,-178.9471 781.9928,-177.8026 777.1614,-176.618"/>
<polygon fill="#0000ff" stroke="#0000ff" points="777.8333,-173.1782 767.2828,-174.1466 776.1344,-179.969 777.8333,-173.1782"/>
</g>
<!-- ordering_signalrhub&#45;&gt;marketing_api -->
<g id="edge67" class="edge">
<title>ordering_signalrhub&#45;&gt;marketing_api</title>
<path fill="none" stroke="#0000ff" d="M1028.7779,-218.3771C996.2521,-207.0089 952.161,-191.5984 918.2965,-179.7622"/>
<polygon fill="#0000ff" stroke="#0000ff" points="919.1827,-176.3644 908.5878,-176.3689 916.873,-182.9724 919.1827,-176.3644"/>
</g>
<!-- ordering_signalrhub&#45;&gt;nosql_data -->
<g id="edge74" class="edge">
<title>ordering_signalrhub&#45;&gt;nosql_data</title>
<path fill="none" stroke="#0000ff" d="M1136.5607,-221.2132C1148.1358,-219.2092 1160.1406,-217.356 1171.4768,-216 1241.8657,-207.5803 1759.7842,-231.5221 1808.4768,-180 1819.4667,-168.3715 1816.36,-157.9232 1808.4768,-144 1799.0837,-127.4101 1782.3358,-115.3609 1765.8137,-106.912"/>
<polygon fill="#0000ff" stroke="#0000ff" points="1767.2403,-103.7149 1756.7061,-102.5826 1764.235,-110.0369 1767.2403,-103.7149"/>
</g>
<!-- webmvc -->
<g id="node21" class="node">
<title>webmvc</title>
<ellipse fill="none" stroke="#000000" cx="257.4768" cy="-306" rx="43.5022" ry="18"/>
<text text-anchor="middle" x="257.4768" y="-301.8" font-family="Times,serif" font-size="14.00" fill="#000000">webmvc</text>
</g>
<!-- webmvc&#45;&gt;webshoppingapigw -->
<g id="edge77" class="edge">
<title>webmvc&#45;&gt;webshoppingapigw</title>
<path fill="none" stroke="#0000ff" d="M257.4768,-287.8314C257.4768,-280.131 257.4768,-270.9743 257.4768,-262.4166"/>
<polygon fill="#0000ff" stroke="#0000ff" points="260.9769,-262.4132 257.4768,-252.4133 253.9769,-262.4133 260.9769,-262.4132"/>
</g>
<!-- webmvc&#45;&gt;webmarketingapigw -->
<g id="edge75" class="edge">
<title>webmvc&#45;&gt;webmarketingapigw</title>
<path fill="none" stroke="#0000ff" d="M301.4041,-305.2854C433.4892,-302.7335 838.4662,-291.9626 1171.4768,-252 1179.7047,-251.0126 1188.2828,-249.7731 1196.7986,-248.4088"/>
<polygon fill="#0000ff" stroke="#0000ff" points="1197.4506,-251.8485 1206.7421,-246.7575 1196.3038,-244.9431 1197.4506,-251.8485"/>
</g>
<!-- webmvc&#45;&gt;webshoppingagg -->
<g id="edge76" class="edge">
<title>webmvc&#45;&gt;webshoppingagg</title>
<path fill="none" stroke="#0000ff" d="M225.949,-293.4586C198.1369,-282.3952 157.1635,-266.0964 125.1458,-253.3601"/>
<polygon fill="#0000ff" stroke="#0000ff" points="126.1068,-249.9756 115.5213,-249.5315 123.5194,-256.4799 126.1068,-249.9756"/>
</g>
<!-- webhooks_client -->
<g id="node22" class="node">
<title>webhooks_client</title>
<ellipse fill="none" stroke="#000000" cx="2088.4768" cy="-162" rx="76.4478" ry="18"/>
<text text-anchor="middle" x="2088.4768" y="-157.8" font-family="Times,serif" font-size="14.00" fill="#000000">webhooks_client</text>
</g>
<!-- webhooks_client&#45;&gt;webhooks_api -->
<g id="edge78" class="edge">
<title>webhooks_client&#45;&gt;webhooks_api</title>
<path fill="none" stroke="#0000ff" d="M2087.4674,-143.8314C2087.0396,-136.131 2086.5309,-126.9743 2086.0555,-118.4166"/>
<polygon fill="#0000ff" stroke="#0000ff" points="2089.5492,-118.2037 2085.4998,-108.4133 2082.5599,-118.592 2089.5492,-118.2037"/>
</g>
</g>
</svg>
