<svg width="593px" height="155px"
 viewBox="0.00 0.00 444.82 116.00" xmlns="http://www.w3.org/2000/svg" xmlns:xlink="http://www.w3.org/1999/xlink">
<g id="graph0" class="graph" transform=" rotate(0) translate(4 112)">
<title>%0</title>
<polygon fill="#ffffff" stroke="transparent" points="-4,4 -4,-112 440.8238,-112 440.8238,4 -4,4"/>
<!-- customer -->
<g id="node1" class="node">
<title>customer</title>
<ellipse fill="none" stroke="#000000" cx="46.4331" cy="-90" rx="46.3662" ry="18"/>
<text text-anchor="middle" x="46.4331" y="-85.8" font-family="Times,serif" font-size="14.00" fill="#000000">customer</text>
</g>
<!-- eureka -->
<g id="node2" class="node">
<title>eureka</title>
<ellipse fill="none" stroke="#000000" cx="237.4331" cy="-18" rx="36.5383" ry="18"/>
<text text-anchor="middle" x="237.4331" y="-13.8" font-family="Times,serif" font-size="14.00" fill="#000000">eureka</text>
</g>
<!-- customer&#45;&gt;eureka -->
<g id="edge1" class="edge">
<title>customer&#45;&gt;eureka</title>
<path fill="none" stroke="#0000ff" d="M80.1404,-77.2936C113.3254,-64.784 163.9556,-45.6983 198.76,-32.5783"/>
<polygon fill="#0000ff" stroke="#0000ff" points="200.0067,-35.8489 208.1293,-29.0464 197.5375,-29.2988 200.0067,-35.8489"/>
</g>
<!-- catalog -->
<g id="node3" class="node">
<title>catalog</title>
<ellipse fill="none" stroke="#000000" cx="149.4331" cy="-90" rx="38.842" ry="18"/>
<text text-anchor="middle" x="149.4331" y="-85.8" font-family="Times,serif" font-size="14.00" fill="#000000">catalog</text>
</g>
<!-- catalog&#45;&gt;eureka -->
<g id="edge2" class="edge">
<title>catalog&#45;&gt;eureka</title>
<path fill="none" stroke="#0000ff" d="M168.9631,-74.0209C181.1236,-64.0714 196.9405,-51.1303 210.3082,-40.1931"/>
<polygon fill="#0000ff" stroke="#0000ff" points="212.7371,-42.728 218.2604,-33.6867 208.3044,-37.3103 212.7371,-42.728"/>
</g>
<!-- order -->
<g id="node4" class="node">
<title>order</title>
<ellipse fill="none" stroke="#000000" cx="237.4331" cy="-90" rx="31.3198" ry="18"/>
<text text-anchor="middle" x="237.4331" y="-85.8" font-family="Times,serif" font-size="14.00" fill="#000000">order</text>
</g>
<!-- order&#45;&gt;eureka -->
<g id="edge3" class="edge">
<title>order&#45;&gt;eureka</title>
<path fill="none" stroke="#0000ff" d="M237.4331,-71.8314C237.4331,-64.131 237.4331,-54.9743 237.4331,-46.4166"/>
<polygon fill="#0000ff" stroke="#0000ff" points="240.9332,-46.4132 237.4331,-36.4133 233.9332,-46.4133 240.9332,-46.4132"/>
</g>
<!-- zuul -->
<g id="node5" class="node">
<title>zuul</title>
<ellipse fill="none" stroke="#000000" cx="314.4331" cy="-90" rx="27.8286" ry="18"/>
<text text-anchor="middle" x="314.4331" y="-85.8" font-family="Times,serif" font-size="14.00" fill="#000000">zuul</text>
</g>
<!-- zuul&#45;&gt;eureka -->
<g id="edge4" class="edge">
<title>zuul&#45;&gt;eureka</title>
<path fill="none" stroke="#0000ff" d="M298.4786,-75.0816C287.9995,-65.2829 274.0796,-52.2669 262.1786,-41.1386"/>
<polygon fill="#0000ff" stroke="#0000ff" points="264.4006,-38.4247 254.7059,-34.1512 259.6197,-43.5377 264.4006,-38.4247"/>
</g>
<!-- turbine -->
<g id="node6" class="node">
<title>turbine</title>
<ellipse fill="none" stroke="#000000" cx="398.4331" cy="-90" rx="38.2818" ry="18"/>
<text text-anchor="middle" x="398.4331" y="-85.8" font-family="Times,serif" font-size="14.00" fill="#000000">turbine</text>
</g>
<!-- turbine&#45;&gt;eureka -->
<g id="edge5" class="edge">
<title>turbine&#45;&gt;eureka</title>
<path fill="none" stroke="#0000ff" d="M370.389,-77.4586C343.6779,-65.5132 303.3188,-47.4644 274.0749,-34.3864"/>
<polygon fill="#0000ff" stroke="#0000ff" points="275.1769,-31.0452 264.6193,-30.1578 272.3192,-37.4354 275.1769,-31.0452"/>
</g>
</g>
</svg>
