<svg width="2158px" height="251px"
 viewBox="0.00 0.00 1618.16 188.00" xmlns="http://www.w3.org/2000/svg" xmlns:xlink="http://www.w3.org/1999/xlink">
<g id="graph0" class="graph" transform=" rotate(0) translate(4 184)">
<title>%0</title>
<polygon fill="#ffffff" stroke="transparent" points="-4,4 -4,-184 1614.1593,-184 1614.1593,4 -4,4"/>
<!-- vehiclemanagementapi -->
<g id="node1" class="node">
<title>vehiclemanagementapi</title>
<ellipse fill="none" stroke="#000000" cx="653.2597" cy="-90" rx="100.1201" ry="18"/>
<text text-anchor="middle" x="653.2597" y="-85.8" font-family="Times,serif" font-size="14.00" fill="#000000">vehiclemanagementapi</text>
</g>
<!-- sqlserver -->
<g id="node2" class="node">
<title>sqlserver</title>
<ellipse fill="none" stroke="#000000" cx="795.2597" cy="-18" rx="45.7829" ry="18"/>
<text text-anchor="middle" x="795.2597" y="-13.8" font-family="Times,serif" font-size="14.00" fill="#000000">sqlserver</text>
</g>
<!-- vehiclemanagementapi&#45;&gt;sqlserver -->
<g id="edge1" class="edge">
<title>vehiclemanagementapi&#45;&gt;sqlserver</title>
<path fill="none" stroke="#0000ff" d="M686.9117,-72.937C708.2969,-62.0938 736.0016,-48.0463 758.0425,-36.8707"/>
<polygon fill="#0000ff" stroke="#0000ff" points="759.7708,-39.9187 767.1069,-32.2746 756.6051,-33.6753 759.7708,-39.9187"/>
</g>
<!-- rabbitmq -->
<g id="node3" class="node">
<title>rabbitmq</title>
<ellipse fill="none" stroke="#000000" cx="963.2597" cy="-18" rx="45.806" ry="18"/>
<text text-anchor="middle" x="963.2597" y="-13.8" font-family="Times,serif" font-size="14.00" fill="#000000">rabbitmq</text>
</g>
<!-- vehiclemanagementapi&#45;&gt;rabbitmq -->
<g id="edge2" class="edge">
<title>vehiclemanagementapi&#45;&gt;rabbitmq</title>
<path fill="none" stroke="#0000ff" d="M714.8763,-75.689C773.1009,-62.1659 859.3537,-42.133 913.3814,-29.5846"/>
<polygon fill="#0000ff" stroke="#0000ff" points="914.461,-32.9271 923.4099,-27.2554 912.8773,-26.1086 914.461,-32.9271"/>
</g>
<!-- customermanagementapi -->
<g id="node4" class="node">
<title>customermanagementapi</title>
<ellipse fill="none" stroke="#000000" cx="879.2597" cy="-90" rx="107.6444" ry="18"/>
<text text-anchor="middle" x="879.2597" y="-85.8" font-family="Times,serif" font-size="14.00" fill="#000000">customermanagementapi</text>
</g>
<!-- customermanagementapi&#45;&gt;sqlserver -->
<g id="edge3" class="edge">
<title>customermanagementapi&#45;&gt;sqlserver</title>
<path fill="none" stroke="#0000ff" d="M858.4956,-72.2022C847.6008,-62.8638 834.1188,-51.3078 822.4059,-41.2682"/>
<polygon fill="#0000ff" stroke="#0000ff" points="824.5035,-38.4564 814.6332,-34.6058 819.948,-43.7712 824.5035,-38.4564"/>
</g>
<!-- customermanagementapi&#45;&gt;rabbitmq -->
<g id="edge4" class="edge">
<title>customermanagementapi&#45;&gt;rabbitmq</title>
<path fill="none" stroke="#0000ff" d="M900.0237,-72.2022C910.9186,-62.8638 924.4006,-51.3078 936.1135,-41.2682"/>
<polygon fill="#0000ff" stroke="#0000ff" points="938.5714,-43.7712 943.8862,-34.6058 934.0158,-38.4564 938.5714,-43.7712"/>
</g>
<!-- workshopmanagementapi -->
<g id="node5" class="node">
<title>workshopmanagementapi</title>
<ellipse fill="none" stroke="#000000" cx="110.2597" cy="-90" rx="110.0199" ry="18"/>
<text text-anchor="middle" x="110.2597" y="-85.8" font-family="Times,serif" font-size="14.00" fill="#000000">workshopmanagementapi</text>
</g>
<!-- workshopmanagementapi&#45;&gt;sqlserver -->
<g id="edge5" class="edge">
<title>workshopmanagementapi&#45;&gt;sqlserver</title>
<path fill="none" stroke="#0000ff" d="M189.5726,-77.4898C203.1297,-75.5272 217.0866,-73.6163 230.2597,-72 416.7722,-49.1153 638.9348,-30.3601 740.1361,-22.281"/>
<polygon fill="#0000ff" stroke="#0000ff" points="740.4374,-25.7682 750.1286,-21.4867 739.8826,-18.7902 740.4374,-25.7682"/>
</g>
<!-- workshopmanagementapi&#45;&gt;rabbitmq -->
<g id="edge6" class="edge">
<title>workshopmanagementapi&#45;&gt;rabbitmq</title>
<path fill="none" stroke="#0000ff" d="M188.2347,-77.2533C202.1999,-75.2703 216.6397,-73.414 230.2597,-72 504.8039,-43.4981 575.8477,-65.7473 850.2597,-36 870.3488,-33.8223 892.3138,-30.5333 911.4923,-27.36"/>
<polygon fill="#0000ff" stroke="#0000ff" points="912.2564,-30.7807 921.5357,-25.6674 911.0931,-23.878 912.2564,-30.7807"/>
</g>
<!-- auditlogservice -->
<g id="node6" class="node">
<title>auditlogservice</title>
<ellipse fill="none" stroke="#000000" cx="1075.2597" cy="-90" rx="70.0616" ry="18"/>
<text text-anchor="middle" x="1075.2597" y="-85.8" font-family="Times,serif" font-size="14.00" fill="#000000">auditlogservice</text>
</g>
<!-- auditlogservice&#45;&gt;rabbitmq -->
<g id="edge7" class="edge">
<title>auditlogservice&#45;&gt;rabbitmq</title>
<path fill="none" stroke="#0000ff" d="M1049.0007,-73.1192C1033.1438,-62.9255 1012.8051,-49.8506 995.9165,-38.9937"/>
<polygon fill="#0000ff" stroke="#0000ff" points="997.7458,-36.0088 987.4413,-33.5454 993.9605,-41.8971 997.7458,-36.0088"/>
</g>
<!-- invoiceservice -->
<g id="node7" class="node">
<title>invoiceservice</title>
<ellipse fill="none" stroke="#000000" cx="1359.2597" cy="-90" rx="66.6113" ry="18"/>
<text text-anchor="middle" x="1359.2597" y="-85.8" font-family="Times,serif" font-size="14.00" fill="#000000">invoiceservice</text>
</g>
<!-- invoiceservice&#45;&gt;sqlserver -->
<g id="edge8" class="edge">
<title>invoiceservice&#45;&gt;sqlserver</title>
<path fill="none" stroke="#0000ff" d="M1311.0495,-77.3784C1302.1841,-75.3576 1292.9767,-73.456 1284.2597,-72 1118.6782,-44.3434 1074.7892,-57.2145 908.2597,-36 888.2984,-33.4571 866.4419,-30.1084 847.3153,-26.9897"/>
<polygon fill="#0000ff" stroke="#0000ff" points="847.7305,-23.511 837.2942,-25.3365 846.5911,-30.4176 847.7305,-23.511"/>
</g>
<!-- invoiceservice&#45;&gt;rabbitmq -->
<g id="edge10" class="edge">
<title>invoiceservice&#45;&gt;rabbitmq</title>
<path fill="none" stroke="#0000ff" d="M1310.1488,-77.7013C1301.5431,-75.6928 1292.6569,-73.7119 1284.2597,-72 1190.6307,-52.9128 1080.6471,-35.4819 1016.7592,-25.8462"/>
<polygon fill="#0000ff" stroke="#0000ff" points="1016.9374,-22.3338 1006.5286,-24.3105 1015.8982,-29.2562 1016.9374,-22.3338"/>
</g>
<!-- mailserver -->
<g id="node8" class="node">
<title>mailserver</title>
<ellipse fill="none" stroke="#000000" cx="1443.2597" cy="-18" rx="51.5804" ry="18"/>
<text text-anchor="middle" x="1443.2597" y="-13.8" font-family="Times,serif" font-size="14.00" fill="#000000">mailserver</text>
</g>
<!-- invoiceservice&#45;&gt;mailserver -->
<g id="edge9" class="edge">
<title>invoiceservice&#45;&gt;mailserver</title>
<path fill="none" stroke="#0000ff" d="M1379.5937,-72.5708C1390.4821,-63.2379 1404.0458,-51.6119 1415.8526,-41.4918"/>
<polygon fill="#0000ff" stroke="#0000ff" points="1418.3765,-43.9383 1423.6913,-34.7729 1413.8209,-38.6235 1418.3765,-43.9383"/>
</g>
<!-- notificationservice -->
<g id="node9" class="node">
<title>notificationservice</title>
<ellipse fill="none" stroke="#000000" cx="1527.2597" cy="-90" rx="82.7994" ry="18"/>
<text text-anchor="middle" x="1527.2597" y="-85.8" font-family="Times,serif" font-size="14.00" fill="#000000">notificationservice</text>
</g>
<!-- notificationservice&#45;&gt;sqlserver -->
<g id="edge11" class="edge">
<title>notificationservice&#45;&gt;sqlserver</title>
<path fill="none" stroke="#0000ff" d="M1468.0509,-77.2859C1457.1831,-75.2746 1445.9096,-73.4 1435.2597,-72 1202.4942,-41.4012 1141.5282,-62.4922 908.2597,-36 888.1819,-33.7198 866.2193,-30.4098 847.0395,-27.2484"/>
<polygon fill="#0000ff" stroke="#0000ff" points="847.436,-23.7661 836.995,-25.5651 846.279,-30.6698 847.436,-23.7661"/>
</g>
<!-- notificationservice&#45;&gt;rabbitmq -->
<g id="edge13" class="edge">
<title>notificationservice&#45;&gt;rabbitmq</title>
<path fill="none" stroke="#0000ff" d="M1467.0049,-77.5011C1456.4499,-75.5148 1445.5531,-73.5932 1435.2597,-72 1285.1158,-48.7607 1106.6624,-31.0063 1018.3788,-22.8758"/>
<polygon fill="#0000ff" stroke="#0000ff" points="1018.6012,-19.3816 1008.3238,-21.9555 1017.9632,-26.3524 1018.6012,-19.3816"/>
</g>
<!-- notificationservice&#45;&gt;mailserver -->
<g id="edge12" class="edge">
<title>notificationservice&#45;&gt;mailserver</title>
<path fill="none" stroke="#0000ff" d="M1506.4956,-72.2022C1495.6797,-62.9315 1482.314,-51.4751 1470.6608,-41.4867"/>
<polygon fill="#0000ff" stroke="#0000ff" points="1472.7895,-38.7015 1462.9191,-34.851 1468.234,-44.0163 1472.7895,-38.7015"/>
</g>
<!-- timeservice -->
<g id="node10" class="node">
<title>timeservice</title>
<ellipse fill="none" stroke="#000000" cx="1219.2597" cy="-90" rx="55.5908" ry="18"/>
<text text-anchor="middle" x="1219.2597" y="-85.8" font-family="Times,serif" font-size="14.00" fill="#000000">timeservice</text>
</g>
<!-- timeservice&#45;&gt;rabbitmq -->
<g id="edge14" class="edge">
<title>timeservice&#45;&gt;rabbitmq</title>
<path fill="none" stroke="#0000ff" d="M1177.2732,-78.1913C1131.4527,-65.3043 1058.2628,-44.7196 1010.4769,-31.2798"/>
<polygon fill="#0000ff" stroke="#0000ff" points="1011.2586,-27.864 1000.6845,-28.5257 1009.3634,-34.6025 1011.2586,-27.864"/>
</g>
<!-- workshopmanagementeventhandler -->
<g id="node11" class="node">
<title>workshopmanagementeventhandler</title>
<ellipse fill="none" stroke="#000000" cx="387.2597" cy="-90" rx="148.1646" ry="18"/>
<text text-anchor="middle" x="387.2597" y="-85.8" font-family="Times,serif" font-size="14.00" fill="#000000">workshopmanagementeventhandler</text>
</g>
<!-- workshopmanagementeventhandler&#45;&gt;sqlserver -->
<g id="edge15" class="edge">
<title>workshopmanagementeventhandler&#45;&gt;sqlserver</title>
<path fill="none" stroke="#0000ff" d="M471.7975,-75.0816C553.4982,-60.6638 674.6698,-39.2806 743.1577,-27.1945"/>
<polygon fill="#0000ff" stroke="#0000ff" points="744.0366,-30.5935 753.2762,-25.4089 742.82,-23.7 744.0366,-30.5935"/>
</g>
<!-- workshopmanagementeventhandler&#45;&gt;rabbitmq -->
<g id="edge16" class="edge">
<title>workshopmanagementeventhandler&#45;&gt;rabbitmq</title>
<path fill="none" stroke="#0000ff" d="M494.8216,-77.5699C626.089,-62.3833 832.8607,-38.3993 850.2597,-36 870.1103,-33.2626 891.8616,-29.8878 910.9339,-26.8029"/>
<polygon fill="#0000ff" stroke="#0000ff" points="911.6244,-30.2366 920.9309,-25.1731 910.498,-23.3278 911.6244,-30.2366"/>
</g>
<!-- webapp -->
<g id="node12" class="node">
<title>webapp</title>
<ellipse fill="none" stroke="#000000" cx="653.2597" cy="-162" rx="41.1335" ry="18"/>
<text text-anchor="middle" x="653.2597" y="-157.8" font-family="Times,serif" font-size="14.00" fill="#000000">webapp</text>
</g>
<!-- webapp&#45;&gt;vehiclemanagementapi -->
<g id="edge19" class="edge">
<title>webapp&#45;&gt;vehiclemanagementapi</title>
<path fill="none" stroke="#0000ff" d="M653.2597,-143.8314C653.2597,-136.131 653.2597,-126.9743 653.2597,-118.4166"/>
<polygon fill="#0000ff" stroke="#0000ff" points="656.7598,-118.4132 653.2597,-108.4133 649.7598,-118.4133 656.7598,-118.4132"/>
</g>
<!-- webapp&#45;&gt;customermanagementapi -->
<g id="edge18" class="edge">
<title>webapp&#45;&gt;customermanagementapi</title>
<path fill="none" stroke="#0000ff" d="M686.6068,-151.3762C721.4637,-140.2713 776.8944,-122.6119 819.3679,-109.0806"/>
<polygon fill="#0000ff" stroke="#0000ff" points="820.5759,-112.3691 829.0416,-105.9987 818.451,-105.6994 820.5759,-112.3691"/>
</g>
<!-- webapp&#45;&gt;workshopmanagementapi -->
<g id="edge17" class="edge">
<title>webapp&#45;&gt;workshopmanagementapi</title>
<path fill="none" stroke="#0000ff" d="M613.5649,-157.227C538.5943,-148.147 371.054,-127.544 230.2597,-108 220.7133,-106.6748 210.7466,-105.2485 200.8145,-103.7993"/>
<polygon fill="#0000ff" stroke="#0000ff" points="201.3132,-100.3351 190.9109,-102.3455 200.2965,-107.2609 201.3132,-100.3351"/>
</g>
</g>
</svg>
