<svg width="774px" height="155px"
 viewBox="0.00 0.00 580.18 116.00" xmlns="http://www.w3.org/2000/svg" xmlns:xlink="http://www.w3.org/1999/xlink">
<g id="graph0" class="graph" transform=" rotate(0) translate(4 112)">
<title>%0</title>
<polygon fill="#ffffff" stroke="transparent" points="-4,4 -4,-112 576.176,-112 576.176,4 -4,4"/>
<!-- uc -->
<g id="node1" class="node">
<title>uc</title>
<ellipse fill="none" stroke="#000000" cx="27" cy="-90" rx="27" ry="18"/>
<text text-anchor="middle" x="27" y="-85.8" font-family="Times,serif" font-size="14.00" fill="#000000">uc</text>
</g>
<!-- eureka -->
<g id="node2" class="node">
<title>eureka</title>
<ellipse fill="none" stroke="#000000" cx="223" cy="-18" rx="36.5383" ry="18"/>
<text text-anchor="middle" x="223" y="-13.8" font-family="Times,serif" font-size="14.00" fill="#000000">eureka</text>
</g>
<!-- uc&#45;&gt;eureka -->
<g id="edge1" class="edge">
<title>uc&#45;&gt;eureka</title>
<path fill="none" stroke="#0000ff" d="M48.4753,-78.6532C53.2032,-76.3272 58.2255,-73.9855 63,-72 109.3287,-52.734 122.4673,-52.0677 170,-36 174.2577,-34.5608 178.7069,-33.054 183.1393,-31.5512"/>
<polygon fill="#0000ff" stroke="#0000ff" points="184.3903,-34.8228 192.7353,-28.2951 182.141,-28.194 184.3903,-34.8228"/>
</g>
<!-- rabbit -->
<g id="node3" class="node">
<title>rabbit</title>
<ellipse fill="none" stroke="#000000" cx="313" cy="-18" rx="33.6247" ry="18"/>
<text text-anchor="middle" x="313" y="-13.8" font-family="Times,serif" font-size="14.00" fill="#000000">rabbit</text>
</g>
<!-- uc&#45;&gt;rabbit -->
<g id="edge2" class="edge">
<title>uc&#45;&gt;rabbit</title>
<path fill="none" stroke="#0000ff" d="M47.8845,-78.2825C52.7342,-75.9238 57.9561,-73.6621 63,-72 151.2736,-42.9107 179.6936,-61.7447 269,-36 271.9194,-35.1584 274.909,-34.1867 277.8883,-33.1396"/>
<polygon fill="#0000ff" stroke="#0000ff" points="279.146,-36.406 287.2704,-29.6057 276.6785,-29.8553 279.146,-36.406"/>
</g>
<!-- mysql -->
<g id="node4" class="node">
<title>mysql</title>
<ellipse fill="none" stroke="#000000" cx="126" cy="-18" rx="34.7903" ry="18"/>
<text text-anchor="middle" x="126" y="-13.8" font-family="Times,serif" font-size="14.00" fill="#000000">mysql</text>
</g>
<!-- uc&#45;&gt;mysql -->
<g id="edge3" class="edge">
<title>uc&#45;&gt;mysql</title>
<path fill="none" stroke="#0000ff" d="M45.6211,-76.4574C60.2165,-65.8425 80.7754,-50.8906 97.447,-38.7658"/>
<polygon fill="#0000ff" stroke="#0000ff" points="99.73,-41.4332 105.7588,-32.7209 95.6128,-35.7721 99.73,-41.4332"/>
</g>
<!-- intention -->
<g id="node5" class="node">
<title>intention</title>
<ellipse fill="none" stroke="#000000" cx="117" cy="-90" rx="45.2439" ry="18"/>
<text text-anchor="middle" x="117" y="-85.8" font-family="Times,serif" font-size="14.00" fill="#000000">intention</text>
</g>
<!-- intention&#45;&gt;eureka -->
<g id="edge4" class="edge">
<title>intention&#45;&gt;eureka</title>
<path fill="none" stroke="#0000ff" d="M140.0004,-74.3771C155.5558,-63.8112 176.2519,-49.7534 193.086,-38.3189"/>
<polygon fill="#0000ff" stroke="#0000ff" points="195.1839,-41.1251 201.4895,-32.6109 191.2507,-35.3345 195.1839,-41.1251"/>
</g>
<!-- intention&#45;&gt;rabbit -->
<g id="edge5" class="edge">
<title>intention&#45;&gt;rabbit</title>
<path fill="none" stroke="#0000ff" d="M151.5787,-78.2339C182.4974,-67.5903 228.9729,-51.2878 269,-36 271.5154,-35.0393 274.1044,-34.0311 276.7072,-33.0031"/>
<polygon fill="#0000ff" stroke="#0000ff" points="278.1071,-36.2127 286.0871,-29.2435 275.5028,-29.7152 278.1071,-36.2127"/>
</g>
<!-- intention&#45;&gt;mysql -->
<g id="edge6" class="edge">
<title>intention&#45;&gt;mysql</title>
<path fill="none" stroke="#0000ff" d="M119.2711,-71.8314C120.2336,-64.131 121.3782,-54.9743 122.4479,-46.4166"/>
<polygon fill="#0000ff" stroke="#0000ff" points="125.9309,-46.7702 123.6983,-36.4133 118.9849,-45.9019 125.9309,-46.7702"/>
</g>
<!-- position -->
<g id="node6" class="node">
<title>position</title>
<ellipse fill="none" stroke="#000000" cx="223" cy="-90" rx="42.3145" ry="18"/>
<text text-anchor="middle" x="223" y="-85.8" font-family="Times,serif" font-size="14.00" fill="#000000">position</text>
</g>
<!-- position&#45;&gt;eureka -->
<g id="edge7" class="edge">
<title>position&#45;&gt;eureka</title>
<path fill="none" stroke="#0000ff" d="M223,-71.8314C223,-64.131 223,-54.9743 223,-46.4166"/>
<polygon fill="#0000ff" stroke="#0000ff" points="226.5001,-46.4132 223,-36.4133 219.5001,-46.4133 226.5001,-46.4132"/>
</g>
<!-- position&#45;&gt;rabbit -->
<g id="edge8" class="edge">
<title>position&#45;&gt;rabbit</title>
<path fill="none" stroke="#0000ff" d="M242.9739,-74.0209C255.7879,-63.7697 272.5715,-50.3428 286.4951,-39.2039"/>
<polygon fill="#0000ff" stroke="#0000ff" points="288.6887,-41.9313 294.311,-32.9512 284.3158,-36.4652 288.6887,-41.9313"/>
</g>
<!-- position&#45;&gt;mysql -->
<g id="edge9" class="edge">
<title>position&#45;&gt;mysql</title>
<path fill="none" stroke="#0000ff" d="M201.9524,-74.3771C187.9424,-63.9779 169.3754,-50.1962 154.106,-38.8622"/>
<polygon fill="#0000ff" stroke="#0000ff" points="156.1279,-36.0041 146.0121,-32.8543 151.9557,-41.625 156.1279,-36.0041"/>
</g>
<!-- order -->
<g id="node7" class="node">
<title>order</title>
<ellipse fill="none" stroke="#000000" cx="315" cy="-90" rx="31.3198" ry="18"/>
<text text-anchor="middle" x="315" y="-85.8" font-family="Times,serif" font-size="14.00" fill="#000000">order</text>
</g>
<!-- order&#45;&gt;eureka -->
<g id="edge10" class="edge">
<title>order&#45;&gt;eureka</title>
<path fill="none" stroke="#0000ff" d="M296.3824,-75.4297C283.3029,-65.1936 265.5795,-51.3231 250.8274,-39.778"/>
<polygon fill="#0000ff" stroke="#0000ff" points="252.5747,-36.701 242.5425,-33.2941 248.2605,-42.2135 252.5747,-36.701"/>
</g>
<!-- order&#45;&gt;rabbit -->
<g id="edge11" class="edge">
<title>order&#45;&gt;rabbit</title>
<path fill="none" stroke="#0000ff" d="M314.4953,-71.8314C314.2814,-64.131 314.0271,-54.9743 313.7894,-46.4166"/>
<polygon fill="#0000ff" stroke="#0000ff" points="317.2879,-46.3122 313.5115,-36.4133 310.2906,-46.5066 317.2879,-46.3122"/>
</g>
<!-- order&#45;&gt;mysql -->
<g id="edge12" class="edge">
<title>order&#45;&gt;mysql</title>
<path fill="none" stroke="#0000ff" d="M289.9552,-78.7024C284.7098,-76.4215 279.1942,-74.0853 274,-72 253.6707,-63.8384 200.8358,-44.7479 164.134,-31.601"/>
<polygon fill="#0000ff" stroke="#0000ff" points="165.3106,-28.3048 154.716,-28.231 162.9522,-34.8955 165.3106,-28.3048"/>
</g>
<!-- api_gateway -->
<g id="node8" class="node">
<title>api_gateway</title>
<ellipse fill="none" stroke="#000000" cx="424" cy="-90" rx="59.6723" ry="18"/>
<text text-anchor="middle" x="424" y="-85.8" font-family="Times,serif" font-size="14.00" fill="#000000">api_gateway</text>
</g>
<!-- api_gateway&#45;&gt;eureka -->
<g id="edge13" class="edge">
<title>api_gateway&#45;&gt;eureka</title>
<path fill="none" stroke="#0000ff" d="M384.3252,-76.4359C353.1584,-65.6967 308.7028,-50.1934 270,-36 267.2698,-34.9988 264.4551,-33.9536 261.6241,-32.8929"/>
<polygon fill="#0000ff" stroke="#0000ff" points="262.6262,-29.5301 252.0346,-29.2679 260.1509,-36.0778 262.6262,-29.5301"/>
</g>
<!-- api_gateway&#45;&gt;rabbit -->
<g id="edge14" class="edge">
<title>api_gateway&#45;&gt;rabbit</title>
<path fill="none" stroke="#0000ff" d="M398.8124,-73.6621C382.3626,-62.992 360.7879,-48.9976 343.3869,-37.7104"/>
<polygon fill="#0000ff" stroke="#0000ff" points="345.0113,-34.5923 334.717,-32.0867 341.202,-40.465 345.0113,-34.5923"/>
</g>
<!-- zipkin -->
<g id="node9" class="node">
<title>zipkin</title>
<ellipse fill="none" stroke="#000000" cx="537" cy="-90" rx="35.3528" ry="18"/>
<text text-anchor="middle" x="537" y="-85.8" font-family="Times,serif" font-size="14.00" fill="#000000">zipkin</text>
</g>
<!-- zipkin&#45;&gt;rabbit -->
<g id="edge15" class="edge">
<title>zipkin&#45;&gt;rabbit</title>
<path fill="none" stroke="#0000ff" d="M509.6963,-78.3517C504.2048,-76.1446 498.4469,-73.9261 493,-72 445.4838,-55.1978 389.7707,-39.0108 353.0548,-28.8145"/>
<polygon fill="#0000ff" stroke="#0000ff" points="353.7961,-25.3884 343.2254,-26.102 351.934,-32.1361 353.7961,-25.3884"/>
</g>
</g>
</svg>
