<svg width="689px" height="443px"
 viewBox="0.00 0.00 516.80 332.00" xmlns="http://www.w3.org/2000/svg" xmlns:xlink="http://www.w3.org/1999/xlink">
<g id="graph0" class="graph" transform=" rotate(0) translate(4 328)">
<title>%0</title>
<polygon fill="#ffffff" stroke="transparent" points="-4,4 -4,-328 512.7968,-328 512.7968,4 -4,4"/>
<!-- clouddriver -->
<g id="node1" class="node">
<title>clouddriver</title>
<ellipse fill="none" stroke="#000000" cx="327.9506" cy="-90" rx="55.5985" ry="18"/>
<text text-anchor="middle" x="327.9506" y="-85.8" font-family="Times,serif" font-size="14.00" fill="#000000">clouddriver</text>
</g>
<!-- redis -->
<g id="node2" class="node">
<title>redis</title>
<ellipse fill="none" stroke="#000000" cx="285.9506" cy="-18" rx="29.6127" ry="18"/>
<text text-anchor="middle" x="285.9506" y="-13.8" font-family="Times,serif" font-size="14.00" fill="#000000">redis</text>
</g>
<!-- clouddriver&#45;&gt;redis -->
<g id="edge1" class="edge">
<title>clouddriver&#45;&gt;redis</title>
<path fill="none" stroke="#0000ff" d="M317.5685,-72.2022C312.613,-63.7071 306.587,-53.3767 301.1302,-44.0223"/>
<polygon fill="#0000ff" stroke="#0000ff" points="303.9859,-41.9715 295.9239,-35.0972 297.9395,-45.4986 303.9859,-41.9715"/>
</g>
<!-- gate -->
<g id="node3" class="node">
<title>gate</title>
<ellipse fill="none" stroke="#000000" cx="250.9506" cy="-306" rx="27.2447" ry="18"/>
<text text-anchor="middle" x="250.9506" y="-301.8" font-family="Times,serif" font-size="14.00" fill="#000000">gate</text>
</g>
<!-- gate&#45;&gt;clouddriver -->
<g id="edge3" class="edge">
<title>gate&#45;&gt;clouddriver</title>
<path fill="none" stroke="#0000ff" d="M257.2518,-288.3238C270.6473,-250.7469 302.0399,-162.6845 318.1033,-117.6235"/>
<polygon fill="#0000ff" stroke="#0000ff" points="321.5011,-118.5151 321.5623,-107.9204 314.9076,-116.1646 321.5011,-118.5151"/>
</g>
<!-- gate&#45;&gt;redis -->
<g id="edge8" class="edge">
<title>gate&#45;&gt;redis</title>
<path fill="none" stroke="#0000ff" d="M278.1227,-303.8953C334.3126,-298.92 460.2001,-284.3387 485.9506,-252 538.3926,-186.1408 490.8258,-126.8412 426.9506,-72 397.6463,-46.8403 355.3656,-32.7539 324.7536,-25.3287"/>
<polygon fill="#0000ff" stroke="#0000ff" points="325.3844,-21.8826 314.8551,-23.0596 323.8202,-28.7056 325.3844,-21.8826"/>
</g>
<!-- igor -->
<g id="node4" class="node">
<title>igor</title>
<ellipse fill="none" stroke="#000000" cx="222.9506" cy="-162" rx="27" ry="18"/>
<text text-anchor="middle" x="222.9506" y="-157.8" font-family="Times,serif" font-size="14.00" fill="#000000">igor</text>
</g>
<!-- gate&#45;&gt;igor -->
<g id="edge2" class="edge">
<title>gate&#45;&gt;igor</title>
<path fill="none" stroke="#0000ff" d="M247.4609,-288.0535C242.6823,-263.4774 234.0535,-219.1008 228.4139,-190.0974"/>
<polygon fill="#0000ff" stroke="#0000ff" points="231.8286,-189.3208 226.4841,-180.1727 224.9573,-190.6569 231.8286,-189.3208"/>
</g>
<!-- orca -->
<g id="node5" class="node">
<title>orca</title>
<ellipse fill="none" stroke="#000000" cx="194.9506" cy="-234" rx="27.8073" ry="18"/>
<text text-anchor="middle" x="194.9506" y="-229.8" font-family="Times,serif" font-size="14.00" fill="#000000">orca</text>
</g>
<!-- gate&#45;&gt;orca -->
<g id="edge4" class="edge">
<title>gate&#45;&gt;orca</title>
<path fill="none" stroke="#0000ff" d="M238.2433,-289.6621C231.0117,-280.3644 221.817,-268.5426 213.7629,-258.1873"/>
<polygon fill="#0000ff" stroke="#0000ff" points="216.5097,-256.018 207.6075,-250.2733 210.9842,-260.3156 216.5097,-256.018"/>
</g>
<!-- front50 -->
<g id="node6" class="node">
<title>front50</title>
<ellipse fill="none" stroke="#000000" cx="382.9506" cy="-162" rx="39.4273" ry="18"/>
<text text-anchor="middle" x="382.9506" y="-157.8" font-family="Times,serif" font-size="14.00" fill="#000000">front50</text>
</g>
<!-- gate&#45;&gt;front50 -->
<g id="edge5" class="edge">
<title>gate&#45;&gt;front50</title>
<path fill="none" stroke="#0000ff" d="M272.303,-294.8671C289.3795,-285.2037 313.1601,-269.9619 329.9506,-252 347.4291,-233.3021 361.746,-207.8619 371.074,-188.799"/>
<polygon fill="#0000ff" stroke="#0000ff" points="374.2444,-190.2817 375.3658,-179.7463 367.9193,-187.2829 374.2444,-190.2817"/>
</g>
<!-- rosco -->
<g id="node7" class="node">
<title>rosco</title>
<ellipse fill="none" stroke="#000000" cx="31.9506" cy="-162" rx="31.9012" ry="18"/>
<text text-anchor="middle" x="31.9506" y="-157.8" font-family="Times,serif" font-size="14.00" fill="#000000">rosco</text>
</g>
<!-- gate&#45;&gt;rosco -->
<g id="edge6" class="edge">
<title>gate&#45;&gt;rosco</title>
<path fill="none" stroke="#0000ff" d="M223.8587,-304.0015C186.9315,-299.9685 120.5301,-287.8954 77.9506,-252 58.7568,-235.8193 46.6497,-209.6164 39.7028,-189.6461"/>
<polygon fill="#0000ff" stroke="#0000ff" points="42.9429,-188.2909 36.5302,-179.8571 36.2839,-190.4491 42.9429,-188.2909"/>
</g>
<!-- echo -->
<g id="node8" class="node">
<title>echo</title>
<ellipse fill="none" stroke="#000000" cx="186.9506" cy="-90" rx="29.0356" ry="18"/>
<text text-anchor="middle" x="186.9506" y="-85.8" font-family="Times,serif" font-size="14.00" fill="#000000">echo</text>
</g>
<!-- gate&#45;&gt;echo -->
<g id="edge7" class="edge">
<title>gate&#45;&gt;echo</title>
<path fill="none" stroke="#0000ff" d="M225.6875,-299.1276C203.4365,-291.5854 172.3891,-277.0797 157.9506,-252 133.2986,-209.1796 155.1847,-150.288 171.9843,-116.577"/>
<polygon fill="#0000ff" stroke="#0000ff" points="175.2626,-117.858 176.7609,-107.3697 169.049,-114.6345 175.2626,-117.858"/>
</g>
<!-- igor&#45;&gt;clouddriver -->
<g id="edge9" class="edge">
<title>igor&#45;&gt;clouddriver</title>
<path fill="none" stroke="#0000ff" d="M242.2092,-148.7941C257.1675,-138.5369 278.2419,-124.0859 295.7537,-112.0778"/>
<polygon fill="#0000ff" stroke="#0000ff" points="297.7539,-114.9502 304.0218,-106.4083 293.7951,-109.1771 297.7539,-114.9502"/>
</g>
<!-- igor&#45;&gt;redis -->
<g id="edge11" class="edge">
<title>igor&#45;&gt;redis</title>
<path fill="none" stroke="#0000ff" d="M230.5498,-144.6302C241.4289,-119.7638 261.5349,-73.8072 274.3005,-44.6288"/>
<polygon fill="#0000ff" stroke="#0000ff" points="277.5226,-45.9958 278.3243,-35.4314 271.1095,-43.1901 277.5226,-45.9958"/>
</g>
<!-- igor&#45;&gt;echo -->
<g id="edge10" class="edge">
<title>igor&#45;&gt;echo</title>
<path fill="none" stroke="#0000ff" d="M214.236,-144.5708C209.9909,-136.0807 204.797,-125.6929 200.0843,-116.2674"/>
<polygon fill="#0000ff" stroke="#0000ff" points="203.1876,-114.6477 195.5849,-107.2687 196.9266,-117.7782 203.1876,-114.6477"/>
</g>
<!-- orca&#45;&gt;clouddriver -->
<g id="edge13" class="edge">
<title>orca&#45;&gt;clouddriver</title>
<path fill="none" stroke="#0000ff" d="M213.2429,-220.2968C226.566,-209.9158 244.6986,-194.9346 258.9506,-180 278.0773,-159.957 297.0247,-134.7559 310.2109,-116.1228"/>
<polygon fill="#0000ff" stroke="#0000ff" points="313.1604,-118.0124 316.0202,-107.8108 307.4228,-114.0023 313.1604,-118.0124"/>
</g>
<!-- orca&#45;&gt;redis -->
<g id="edge17" class="edge">
<title>orca&#45;&gt;redis</title>
<path fill="none" stroke="#0000ff" d="M182.1952,-217.8705C159.4676,-187.035 117.1981,-118.6455 148.9506,-72 160.5553,-54.9521 211.9438,-37.9451 248.3634,-27.6981"/>
<polygon fill="#0000ff" stroke="#0000ff" points="249.4804,-31.0209 258.1931,-24.9927 247.6228,-24.2718 249.4804,-31.0209"/>
</g>
<!-- orca&#45;&gt;igor -->
<g id="edge12" class="edge">
<title>orca&#45;&gt;igor</title>
<path fill="none" stroke="#0000ff" d="M201.8719,-216.2022C205.0592,-208.0064 208.9107,-198.1024 212.4449,-189.0145"/>
<polygon fill="#0000ff" stroke="#0000ff" points="215.7463,-190.1817 216.1088,-179.593 209.2223,-187.6445 215.7463,-190.1817"/>
</g>
<!-- orca&#45;&gt;front50 -->
<g id="edge14" class="edge">
<title>orca&#45;&gt;front50</title>
<path fill="none" stroke="#0000ff" d="M219.1434,-224.7347C250.4599,-212.7411 305.458,-191.678 343.0133,-177.2951"/>
<polygon fill="#0000ff" stroke="#0000ff" points="344.5474,-180.4556 352.6342,-173.6105 342.0438,-173.9186 344.5474,-180.4556"/>
</g>
<!-- orca&#45;&gt;rosco -->
<g id="edge15" class="edge">
<title>orca&#45;&gt;rosco</title>
<path fill="none" stroke="#0000ff" d="M171.9423,-223.8369C144.5049,-211.7173 98.374,-191.3404 66.6117,-177.3104"/>
<polygon fill="#0000ff" stroke="#0000ff" points="67.8139,-174.0153 57.2523,-173.1762 64.9855,-180.4184 67.8139,-174.0153"/>
</g>
<!-- orca&#45;&gt;echo -->
<g id="edge16" class="edge">
<title>orca&#45;&gt;echo</title>
<path fill="none" stroke="#0000ff" d="M191.619,-216.0736C189.8419,-205.5982 187.8419,-192.0982 186.9506,-180 185.4389,-159.4819 185.4823,-136.2611 185.881,-118.5458"/>
<polygon fill="#0000ff" stroke="#0000ff" points="189.3864,-118.3934 186.1644,-108.3004 182.3891,-118.1998 189.3864,-118.3934"/>
</g>
<!-- rosco&#45;&gt;redis -->
<g id="edge18" class="edge">
<title>rosco&#45;&gt;redis</title>
<path fill="none" stroke="#0000ff" d="M43.6224,-144.9266C58.2733,-124.7323 85.2379,-91.4147 115.9506,-72 156.6895,-46.2473 210.7273,-31.8486 246.8361,-24.517"/>
<polygon fill="#0000ff" stroke="#0000ff" points="247.8256,-27.8903 256.9751,-22.5483 246.4913,-21.0186 247.8256,-27.8903"/>
</g>
<!-- fiat -->
<g id="node9" class="node">
<title>fiat</title>
<ellipse fill="none" stroke="#000000" cx="449.9506" cy="-234" rx="27" ry="18"/>
<text text-anchor="middle" x="449.9506" y="-229.8" font-family="Times,serif" font-size="14.00" fill="#000000">fiat</text>
</g>
<!-- fiat&#45;&gt;clouddriver -->
<g id="edge19" class="edge">
<title>fiat&#45;&gt;clouddriver</title>
<path fill="none" stroke="#0000ff" d="M450.4838,-215.932C450.1504,-196.3235 446.8547,-165.0084 430.9506,-144 417.8594,-126.7074 397.6188,-114.4191 378.5338,-105.9802"/>
<polygon fill="#0000ff" stroke="#0000ff" points="379.8716,-102.746 369.294,-102.1416 377.186,-109.2103 379.8716,-102.746"/>
</g>
<!-- fiat&#45;&gt;redis -->
<g id="edge21" class="edge">
<title>fiat&#45;&gt;redis</title>
<path fill="none" stroke="#0000ff" d="M454.008,-216.1516C457.4071,-197.5495 460.4714,-167.8419 451.9506,-144 431.0519,-85.5243 363.5618,-48.8221 321.3467,-30.9818"/>
<polygon fill="#0000ff" stroke="#0000ff" points="322.5567,-27.6954 311.9757,-27.1548 319.9101,-34.1758 322.5567,-27.6954"/>
</g>
<!-- fiat&#45;&gt;front50 -->
<g id="edge20" class="edge">
<title>fiat&#45;&gt;front50</title>
<path fill="none" stroke="#0000ff" d="M435.4126,-218.3771C426.6171,-208.9253 415.2214,-196.6792 405.2991,-186.0163"/>
<polygon fill="#0000ff" stroke="#0000ff" points="407.7673,-183.5309 398.3927,-178.5945 402.6428,-188.2996 407.7673,-183.5309"/>
</g>
</g>
</svg>
